<?xml version="1.0" encoding="UTF-8" standalone="no"?>
<!-- Created with Inkscape (http://www.inkscape.org/) -->

<svg
   xmlns:dc="http://purl.org/dc/elements/1.1/"
   xmlns:cc="http://creativecommons.org/ns#"
   xmlns:rdf="http://www.w3.org/1999/02/22-rdf-syntax-ns#"
   xmlns:svg="http://www.w3.org/2000/svg"
   xmlns="http://www.w3.org/2000/svg"
   version="1.1"
   width="16"
   height="30"
   viewBox="0 0 16 30"
   id="site.fw-Page%201"
   xml:space="preserve"><metadata
   id="metadata9"><rdf:RDF><cc:Work
       rdf:about=""><dc:format>image/svg+xml</dc:format><dc:type
         rdf:resource="http://purl.org/dc/dcmitype/StillImage" /><dc:title></dc:title></cc:Work></rdf:RDF></metadata><defs
   id="defs7" />
	<path
   d="M 10.8624,1.5151 C 10.4059,1.9493 8.387,8.1165 8.3776,8.9686 c -0.028,2.5445 1.4642,1.6983 3.8136,3.1073 l -0.0299,1.8236 c -1.3224,-0.42 -2.9437,-0.7003 -3.3869,-0.7003 -0.2955,0 -3.9911,0.2803 -6.0602,0.7003 -0.5908,0.1399 -1.0342,0.5592 -1.0354,1.257 -0.004,2.3623 5.4273,2.639 5.4144,4.0203 -0.002,0.2755 -0.169,2.4726 -0.3272,3.8387 -1.017,-0.4094 -1.8893,-0.819 -2.7619,-1.3661 l -0.584,0 c -0.292,0 -0.002,0.5471 -0.003,0.8202 -0.2922,0.1365 -0.5843,0.273 -0.5856,0.6821 -9e-4,0.2725 0.1442,0.4087 0.2888,0.6809 0.4373,-0.1361 0.5847,-0.5445 1.0238,-0.9534 0.4357,0.2725 1.0166,0.545 1.4506,0.9534 -0.8766,0.5437 -2.1867,0.8152 -3.3501,0.951 -0.291,0.1357 -0.8724,0.2712 -1.1631,0.4067 -0.1456,0.5416 -0.5811,1.2175 -0.5811,1.4874 0,0.4046 0.4345,0.674 0.5793,0.674 0.4344,0 0.7261,-1.0789 0.8717,-1.3494 1.4521,-0.2704 4.2156,-0.9475 4.5062,-0.9475 0.5812,0 0.7226,0.4065 0.7187,0.8124 l -0.0231,2.4261 c 0.1407,0.4025 0.4257,0.8048 0.4229,1.0727 0.1445,0 -0.001,0.134 0.4318,0.134 0.4331,0 0.5899,-1.0725 0.5899,-1.0725 0.0126,-1.0758 -0.5783,0 0.0408,-3.5082 l 0.5813,0 c 1.3041,0.271 2.7523,0.542 4.2019,0.6774 0.2828,0.4056 0.5625,0.946 0.6996,1.3508 l 0.7246,0 c 0.003,-0.1348 0.1505,-0.2698 0.1588,-0.6747 0.0113,-0.5409 -0.7119,-0.6761 -0.4079,-1.3535 -1.7367,-0.4072 -3.4775,-0.6788 -5.2179,-1.0867 0.2946,-0.2722 1.0304,-0.8171 1.3218,-0.8171 0.4372,0 0.4289,0.5449 0.7159,0.8171 0.2933,-0.1361 0.5889,-0.4084 0.5956,-0.8171 0.007,-0.4094 -0.5744,-0.5459 -0.4178,-1.2294 -0.1438,-0.1367 0.002,-0.1367 -0.4358,-0.1367 -0.2921,0 -1.91,0.9567 -2.9351,1.3661 0.012,-1.0925 -0.1103,-3.2878 -0.1073,-3.5632 0.006,-0.5513 -0.2772,-1.5183 0.897,-1.5183 0.4403,0 0.11,0.5003 0.4316,0.691 0.3214,0.1906 0.649,0.2286 0.7331,0 0.0842,-0.2289 -0.2859,-0.5529 -0.429,-0.8295 1.0337,-0.4154 2.2132,-0.6925 3.2492,-1.1087 0.2631,-0.466 0.5247,-0.4784 0.7585,-1.2515 -0.2895,-0.2788 -0.5742,-0.8369 -1.0118,-1.1163 l 0.0313,-1.8214 c 0.5942,-0.1405 2.5232,-0.4217 2.3983,-1.5484 L 15.5004,2.3831 C 15.2239,1.2255 14.0356,0.5 12.9828,0.5 c -0.7519,0 -1.6586,0.2904 -2.12,1.0151 z"
   id="path3"
   style="fill:#111410;stroke:#111410;stroke-width:1" />
</svg>