<?xml version="1.0" encoding="UTF-8" standalone="no"?>
<!-- Created with Inkscape (http://www.inkscape.org/) -->

<svg
   xmlns:dc="http://purl.org/dc/elements/1.1/"
   xmlns:cc="http://creativecommons.org/ns#"
   xmlns:rdf="http://www.w3.org/1999/02/22-rdf-syntax-ns#"
   xmlns:svg="http://www.w3.org/2000/svg"
   xmlns="http://www.w3.org/2000/svg"
   version="1.1"
   width="24.9375"
   height="21.0625"
   viewBox="0 0 24.9375 21.0625"
   id="site.fw-Page%201"
   xml:space="preserve"><metadata
   id="metadata9"><rdf:RDF><cc:Work
       rdf:about=""><dc:format>image/svg+xml</dc:format><dc:type
         rdf:resource="http://purl.org/dc/dcmitype/StillImage" /><dc:title></dc:title></cc:Work></rdf:RDF></metadata><defs
   id="defs7" />
	
<path
   d="M 10.40625,0 9.625,0.4063 C 9.62,0.4803 9.6116,0.553 9.5938,0.625 9.5661,0.7284 9.5311,0.835 9.5001,0.9375 9.4645,1.0631 9.4186,1.1725 9.34385,1.2813 9.27225,1.3985 9.18655,1.5232 9.09385,1.625 8.99955,1.7358 8.91712,1.8357 8.8126,1.9375 8.7286,2.0225 8.62165,2.1095 8.53135,2.1875 8.43435,2.2735 8.3494,2.3545 8.2501,2.4375 8.1746,2.5135 8.10655,2.6115 8.03135,2.6875 7.93007,2.7912 7.839,2.8857 7.7501,3 7.64579,3.144 7.5447,3.294 7.5001,3.4687 c -0.0297,0.1595 -0.0393,0.3378 -0.0312,0.5 0.003,0.1422 -0.004,0.2679 0.0312,0.4063 0.0296,0.1091 0.0743,0.2112 0.125,0.3125 0.0462,0.1109 0.094,0.2042 0.1875,0.2812 0.0846,0.077 0.1666,0.171 0.25,0.25 0.11443,0.094 0.2466,0.2063 0.375,0.2813 0.16947,0.115 0.32525,0.2066 0.5,0.3125 l 0.75,-0.4688 C 9.50791,5.2477 9.32584,5.1447 9.15635,5.0313 9.0349,4.9533 8.92175,4.844 8.8126,4.75 8.7296,4.673 8.643,4.6103 8.5626,4.5313 8.4786,4.4623 8.4144,4.3828 8.3751,4.2813 8.3281,4.1823 8.2777,4.0748 8.2501,3.9687 8.22,3.8362 8.2228,3.6978 8.2189,3.5625 8.2119,3.4063 8.242,3.2452 8.2814,3.0937 8.3392,2.9329 8.4315,2.7933 8.5314,2.6563 8.6205,2.5413 8.746,2.4504 8.8439,2.3437 8.9259,2.2747 8.97835,2.191 9.06265,2.125 9.164,2.046 9.24219,1.953 9.3439,1.875 9.4363,1.795 9.54345,1.716 9.62515,1.625 9.72998,1.5231 9.80188,1.383 9.9064,1.2813 9.9949,1.1715 10.05765,1.0616 10.12515,0.9375 10.21095,0.8282 10.2328,0.687 10.2814,0.5625 10.3145,0.4582 10.353,0.3575 10.3751,0.25 10.3897,0.172 10.4034,0.079 10.4063,0 z m 3.375,0.125 -0.75,0.4687 c 0.031,0.039 0.062,0.055 0.0937,0.094 0.0506,0.091 0.11565,0.1863 0.15625,0.2812 0.0375,0.111 0.0352,0.2262 0.0312,0.3438 0,0.1321 0.008,0.2744 0,0.4062 -0.0108,0.1379 -0.0184,0.2745 -0.0625,0.4063 -0.0388,0.1293 -0.0753,0.2646 -0.15625,0.375 -0.0651,0.091 -0.1638,0.178 -0.25,0.25 -0.10028,0.084 -0.2045,0.1447 -0.3125,0.2187 -0.10359,0.068 -0.2154,0.1418 -0.3125,0.2188 -0.10122,0.064 -0.19685,0.1328 -0.28125,0.2188 -0.0821,0.091 -0.16095,0.1719 -0.21875,0.2812 -0.0668,0.131 -0.10385,0.2871 -0.0937,0.4375 -10e-4,0.1183 -0.006,0.2256 0,0.3437 0.009,0.125 0.0102,0.2596 0.0625,0.375 0.0573,0.1205 0.12945,0.2437 0.21875,0.3438 0.0947,0.1108 0.20307,0.1863 0.3125,0.2812 0.13974,0.1138 0.30087,0.2264 0.4375,0.3438 L 13.37495,5.3439 C 13.23018,5.2352 13.10786,5.1159 12.9687,5.0002 12.8642,4.9072 12.7487,4.8241 12.6562,4.7189 12.5709,4.6259 12.5216,4.5203 12.4687,4.4065 12.4229,4.2998 12.4112,4.1773 12.4062,4.0627 c -0.004,-0.1166 -4.5e-4,-0.227 0,-0.3438 -0.008,-0.1401 0.0609,-0.2566 0.125,-0.375 0.0691,-0.098 0.12615,-0.2042 0.21875,-0.2812 0.0841,-0.085 0.18765,-0.1155 0.28125,-0.1875 0.0916,-0.084 0.21237,-0.1467 0.3125,-0.2187 0.10707,-0.079 0.2204,-0.153 0.3125,-0.25 0.0973,-0.065 0.15535,-0.1551 0.21875,-0.25 0.0766,-0.1199 0.11205,-0.2736 0.15625,-0.4063 0.0397,-0.139 0.0535,-0.2625 0.0625,-0.4063 0.007,-0.1336 -6e-5,-0.2723 0,-0.4062 0.002,-0.1266 -0.0221,-0.2558 -0.0625,-0.375 -0.0449,-0.1 -0.10205,-0.2175 -0.15625,-0.3125 -0.0323,-0.044 -0.0597,-0.082 -0.0937,-0.125 z m 3.4375,0.031 -0.78125,0.4062 c 0.0178,0.1796 0.066,0.361 0.125,0.5312 0.0642,0.1445 0.12975,0.275 0.21875,0.4063 0.065,0.086 0.1232,0.1953 0.1875,0.2813 0.0886,0.1086 0.16075,0.217 0.21875,0.3437 0.0538,0.1203 0.0555,0.2452 0.0625,0.375 0.008,0.1321 0.0106,0.28 -0.0312,0.4063 -0.0292,0.1275 -0.1259,0.2305 -0.1875,0.3437 -0.071,0.1242 -0.1532,0.2082 -0.25,0.3125 -0.075,0.07 -0.1653,0.1306 -0.25,0.1875 0.0236,-0.014 -0.13732,0.089 -0.0937,0.062 -0.12381,0.072 -0.25107,0.1473 -0.375,0.2188 -0.12482,0.08 -0.2044,0.1732 -0.25,0.3124 -0.0304,0.1191 -0.0306,0.2531 -0.0312,0.375 -0.005,0.1231 0.0282,0.2571 0.0625,0.375 0.0245,0.1262 0.0778,0.2257 0.125,0.3438 0.0511,0.1077 0.0638,0.2097 0.125,0.3125 0.008,0.013 0.0232,0.05 0.0312,0.062 l 0.75,-0.4375 c -0.008,-0.013 0.008,-0.018 0,-0.031 -0.0611,-0.097 -0.10625,-0.2098 -0.15625,-0.3124 -0.0473,-0.1146 -0.1007,-0.2524 -0.125,-0.375 -0.0282,-0.1121 -0.0383,-0.2278 -0.0312,-0.3438 0.002,-0.113 -0.01,-0.2055 0.0312,-0.3125 0.059,-0.1207 0.16471,-0.2153 0.28125,-0.2813 0.10141,-0.058 0.21123,-0.098 0.3125,-0.1562 0.0209,-0.012 0.042,-0.05 0.0625,-0.062 0.11627,-0.08 0.2177,-0.1449 0.3125,-0.25 0.0972,-0.1096 0.21225,-0.2449 0.28125,-0.375 C 17.91215,2.7589 17.9733,2.6644 18.0001,2.5308 18.029,2.3939 18.0435,2.264 18.0313,2.1245 18.0213,1.9841 17.9982,1.847 17.9376,1.7182 17.8761,1.5871 17.80825,1.4268 17.71885,1.312 17.65725,1.224 17.59775,1.146 17.53135,1.062 17.44355,0.94 17.375,0.7917 17.3126,0.6558 17.2556,0.4895 17.2278,0.3319 17.2189,0.1558 z m -11.875,6.25 0,10.0312 c 0,1.9536 6.11655,1.75 6.84375,1.75 3.0035,0.01 5.839,-0.1174 7.34375,-2.7812 0.003,0 0.0287,0 0.0312,0 l 0.5625,-0.031 c 0,0 1.12488,-0.062 2.28125,-0.6875 1.15637,-0.6258 2.40261,-1.9099 2.53125,-4.0625 l 0,-0.031 C 24.90475,8.5287 23.62677,7.3735 22.43745,6.8753 21.24813,6.3771 20.0937,6.4066 20.0937,6.4066 l -0.21875,0 -0.34375,0 -14.1875,0 z m 15.3125,1.2187 c 0.33189,0.02 0.67095,-6e-4 1.34375,0.2813 0.92258,0.3863 1.76166,1.0685 1.8125,2.6562 8e-4,0.025 -4e-4,0.037 0,0.062 -0.12611,1.7243 -1.02416,2.5682 -1.9375,3.0625 -0.62224,0.3367 -0.88456,0.3182 -1.21875,0.375 l 0,-6.4375 z M 0,18.875 c 0.9697,1.4651 0.9754,1.4548 2.1875,2.1875 l 19.375,0 c 1.2122,0 1.9526,-1.6989 2.4375,-2.1875 l -24,0 z"
   id="path3018"
   style="fill:#000000;fill-opacity:1;fill-rule:evenodd;stroke:none" /></svg>