<?xml version="1.0" encoding="UTF-8" standalone="no"?>
<!-- Created with Inkscape (http://www.inkscape.org/) -->

<svg
   xmlns:dc="http://purl.org/dc/elements/1.1/"
   xmlns:cc="http://creativecommons.org/ns#"
   xmlns:rdf="http://www.w3.org/1999/02/22-rdf-syntax-ns#"
   xmlns:svg="http://www.w3.org/2000/svg"
   xmlns="http://www.w3.org/2000/svg"
   xmlns:sodipodi="http://sodipodi.sourceforge.net/DTD/sodipodi-0.dtd"
   xmlns:inkscape="http://www.inkscape.org/namespaces/inkscape"
   version="1.1"
   width="98.348579"
   height="48.220165"
   viewBox="0 0 278.13667 136.36132"
   id="Layer_1"
   xml:space="preserve"
   inkscape:version="0.48.2 r9819"
   sodipodi:docname="couch.svg"><sodipodi:namedview
   pagecolor="#ffffff"
   bordercolor="#666666"
   borderopacity="1"
   objecttolerance="10"
   gridtolerance="10"
   guidetolerance="10"
   inkscape:pageopacity="0"
   inkscape:pageshadow="2"
   inkscape:window-width="640"
   inkscape:window-height="480"
   id="namedview11"
   showgrid="false"
   inkscape:zoom="3.2740686"
   inkscape:cx="49.17429"
   inkscape:cy="24.110083"
   inkscape:window-x="0"
   inkscape:window-y="0"
   inkscape:window-maximized="0"
   inkscape:current-layer="Layer_1" /><metadata
   id="metadata37"><rdf:RDF><cc:Work
       rdf:about=""><dc:format>image/svg+xml</dc:format><dc:type
         rdf:resource="http://purl.org/dc/dcmitype/StillImage" /><dc:title></dc:title></cc:Work></rdf:RDF></metadata><defs
   id="defs35" />

<g
   transform="translate(-1.6606171,-86.865)"
   id="g5">
	
</g>


<g
   transform="translate(-1.6606171,-86.865)"
   id="g13">
	
</g>

<g
   transform="translate(-1.6606171,-86.865)"
   id="g19">
	
</g>
<g
   transform="translate(-1.6606171,-86.865)"
   id="g23">
	
</g>

<g
   transform="translate(-1.6606171,-86.865)"
   id="g29">
	<path
   id="path31"
   transform="matrix(2.82807,0,0,2.82807,1.6606171,86.860658)"
   d="m 6.375,0 c -0.5512593,0 -1,0.44874068 -1,1 l 0,9.1875 c 0,0.551259 0.4487407,1.040223 1,1.0625 0,0 1.3143051,0.05699 2.8125,0.84375 3.214206,1.687723 3.125,5.59375 3.125,5.59375 -0.01131,0.551259 -0.03125,1.448741 -0.03125,2 l 0,4.4375 c 0,0.551259 0.479637,1 1.03125,1 l 34.1875,0 c 0.551613,0 1,-0.448741 1,-1 L 48.5,1 c 0,-0.55125932 -0.448387,-1 -1,-1 L 6.375,0 z m 44.5,0 c -0.551259,0 -1,0.44874068 -1,1 l 0,23.125 c 0,0.551259 0.448741,1 1,1 l 34.21875,0 c 0.551259,0 1,-0.448741 1,-1 l 0,-4.4375 c 0,-0.551259 -0.01994,-1.448741 -0.03125,-2 0,0 -0.05796,-3.906027 3.15625,-5.59375 C 90.717298,11.306994 92,11.25 92,11.25 c 0.551613,-0.02228 1,-0.511241 1,-1.0625 L 93,1 C 93,0.44874068 92.551613,0 92,0 L 50.875,0 z M 4.53125,12.71875 C 3.7160739,12.777668 3.2568921,13.008886 3.125,13.09375 2.8612159,13.263477 1.1663989,14.010385 0.46875,15.6875 -0.22889891,17.364969 0.04968362,17.625778 0.125,18.71875 0.20031638,19.812075 0.87403225,20.830273 1.0625,21 1.2509678,21.169373 3.0293145,23.729324 3.40625,24.125 3.7831855,24.520676 5,27.022376 5,27.4375 L 5,47.375 c 0,0 0.080202,0.84375 2.71875,0.84375 2.638549,0 3.03125,-0.84375 3.03125,-0.84375 l 0,-28.34375 c 0,0 0.297441,-4.205391 -2.71875,-5.5625 -1.5079188,-0.678378 -2.6848239,-0.808918 -3.5,-0.75 z m 88.59375,0 c -0.740606,0.04404 -1.681561,0.241217 -2.8125,0.75 -3.015838,1.357109 -2.71875,5.5625 -2.71875,5.5625 l 0,28.34375 c 0,0 0.392701,0.84375 3.03125,0.84375 2.638549,0 2.71875,-0.84375 2.71875,-0.84375 l 0,-19.9375 c 0,-0.415124 1.248418,-2.916824 1.625,-3.3125 0.377289,-0.395676 2.124386,-2.955627 2.3125,-3.125 0.188468,-0.169727 0.89308,-1.187925 0.96875,-2.28125 0.07532,-1.092972 0.323003,-1.353781 -0.375,-3.03125 -0.697649,-1.677115 -2.392466,-2.424023 -2.65625,-2.59375 -0.164865,-0.106079 -0.859406,-0.448396 -2.09375,-0.375 z M 13.3125,26.625 c -0.551613,0 -1.03125,0.448741 -1.03125,1 l 0,5.125 c 0,0.551613 0.479637,1.03125 1.03125,1.03125 l 34.1875,0 c 0.551613,0 1,-0.479637 1,-1.03125 l 0,-5.125 c 0,-0.551259 -0.448387,-1 -1,-1 l -34.1875,0 z m 37.5625,0 c -0.551259,0 -1,0.448741 -1,1 l 0,5.125 c 0,0.551613 0.448741,1.03125 1,1.03125 l 34.21875,0 c 0.551259,0 1,-0.479637 1,-1.03125 l 0,-5.125 c 0,-0.551259 -0.448741,-1 -1,-1 l -34.21875,0 z m -37.5625,8.65625 c -0.548784,0 -0.998939,0.448741 -1,1 l -0.03125,7.78125 c -0.0011,0.551613 0.450862,1 1,1 l 71.84375,0 c 0.548431,0 1,-0.448387 1,-1 l 0,-7.78125 c 0,-0.551259 -0.451216,-1 -1,-1 l -71.8125,0 z" />
</g>
</svg>