<?xml version="1.0" encoding="UTF-8" standalone="no"?>
<!-- Created with Inkscape (http://www.inkscape.org/) -->

<svg
   xmlns:dc="http://purl.org/dc/elements/1.1/"
   xmlns:cc="http://creativecommons.org/ns#"
   xmlns:rdf="http://www.w3.org/1999/02/22-rdf-syntax-ns#"
   xmlns:svg="http://www.w3.org/2000/svg"
   xmlns="http://www.w3.org/2000/svg"
   version="1.1"
   width="316"
   height="218"
   viewBox="0 0 316 218"
   id="site.fw-Page%201"
   xml:space="preserve"><metadata
   id="metadata11"><rdf:RDF><cc:Work
       rdf:about=""><dc:format>image/svg+xml</dc:format><dc:type
         rdf:resource="http://purl.org/dc/dcmitype/StillImage" /><dc:title></dc:title></cc:Work></rdf:RDF></metadata><defs
   id="defs9" />
	
	<path
   d="m 244.4088,0 c -3.1152,0 -6.2497,0.131 -9.4062,0.375 -27.2458,2.1055 -51.5185,12.25 -76.75,12.25 -24.1377,0 -45.3911,-10.2505 -77.25,-11.875 C 78.2637,0.6103 75.49255,0.5312 72.65885,0.5312 60.02525,0.5312 56.8571,0.005 41.0651,3.6875 30.0107,5.7919 18.432,8.9582 7.3776,11.0625 l 0,2.625 c 0,2.6303 -0.53125,6.2917 -0.53125,7.3437 0,1.5784 -0.0118,6.8437 2.09375,10 2.6319,4.2086 7.9208,7.8904 9.5,12.625 1.3322,3.614 2.49975,7.4417 3.65625,11.3438 -0.57825,-1.9511 -0.0561,-0.2241 0.34375,1.125 1.91708,6.4211 3.77896,12.1774 6,18.0312 2.1057,4.8561 4.19505,11.6441 8.40625,16.5 11.113,12.0348 29.76965,15.84 44.15625,16.4376 1.2871,0.053 2.35255,0.094 3.46875,0.094 23.3003,0 43.6727,-7.2771 57.75,-39.8125 1.6791,-4.0795 2.67115,-7.9526 3.96875,-12.375 0.6642,-2.2636 0.32825,-1.1499 0,-0.031 1.32519,-4.517 2.57595,-8.8918 4.78125,-12.875 0.4854,-1.5782 4.3563,-2.625 5.8125,-2.625 0.9709,0 4.85415,-0.026 7.28125,0.5 1.4563,0.5262 2.9041,2.1143 3.875,4.2187 2.2705,3.4449 3.7191,7.1226 5,10.8125 1.4574,4.199 2.24775,7.7563 3.28125,11.375 3.8834,13.1113 20.85825,34.0094 35.90625,36.4375 2.4272,0.4856 4.3687,1.4519 7.2812,1.9375 4.3688,0.9712 14.0918,1.9375 15.0626,1.9375 0.1808,0 0.3327,0 0.5312,0 16.3192,-0.139 40.6096,-5.5887 51.5312,-26.2187 4.1711,-7.9916 5.795,-16.1674 8.2188,-25.4688 1.553,-5.9592 3.4168,-11.7839 6.5,-17.125 1.5793,-3.1565 4.7333,-4.7342 6.3125,-6.3125 0.5264,-0.5261 1.0625,-1.5676 1.0625,-2.0937 0,-10.5215 0.5312,-11.0466 0.5312,-12.625 0,-1.052 -0.5144,-4.7552 -2.0937,-5.2813 C 298.6428,8.4067 289.6751,6.8548 281.2526,4.7505 272.8302,2.6463 253.8841,5e-4 244.4088,5e-4 z M 88.40885,11.1875 c 10.6793,0 50.96875,3.1602 50.96875,28.9375 0,4.4487 -1.9953,10.7178 -3.9375,16.0625 -0.8138,2.2396 -1.445,3.9851 -1.875,5.5625 -8.7376,28.1651 -30.58095,37.875 -50.96875,37.875 -0.8227,0 -1.5945,-0.028 -2.5,-0.062 C 61.23385,98.8532 39.9607,91.2364 35.4401,68.5317 34.7167,64.9726 33.65215,60.6519 32.72135,56.188 31.62015,50.907 30.6901,46.477 30.6901,45.9067 l 0,-13.6874 C 31.1319,15.883 61.59805,12.1548 80.09635,11.3755 c 3.5424,-0.1492 6.128,-0.1875 8.3125,-0.1875 z m 139.31255,0 c 1.7193,0 3.6884,0.043 6.375,0.1563 15.5163,0.6565 42.0106,3.5829 47.8437,13 1.5792,1.578 2.63,4.182 3.1563,6.8124 0.5263,1.5782 1.0624,5.7969 1.0624,7.375 0,4.0723 -1.132,11.2076 -2.4062,17.6563 -1.0302,5.2146 -2.169,9.2038 -2.875,11.375 -2.6321,7.7696 -5.7677,19.4372 -17.875,25.75 -8.7631,4.2797 -19.565,6.2267 -28.9062,6.3125 l -0.5313,0 c -18.9316,0 -39.33735,-8.7487 -49.53125,-34 -1.2495,-3.2144 -2.3906,-6.0977 -3.5625,-9.4375 -2.0146,-5.7426 -3.21875,-11.2718 -3.21875,-16.5937 0,-25.2513 39.7894,-28.4063 50.4688,-28.4063 z m 7.2812,142.6833 c 4.8579,3.2774 9.4575,5.9332 13.9014,9.1406 11.0788,7.996 21.1889,14.6921 31.9166,14.6921 7.6068,0 18.0664,-3.7926 18.0664,-14.2223 0,-0.1595 0,-0.3199 -0.01,-0.4811 -0.2602,-8.4563 -7.3019,-17.4979 -16.6327,-17.4979 -2.3772,0 -3.8036,-0.4375 -6.1807,1.7505 -1.4263,0.8752 -2.8527,2.6256 -4.2789,3.0632 3.8034,-7.4393 9.9841,-9.1897 16.6401,-9.1897 13.6805,0 23.1085,10.595 26.3419,21.8738 0.8119,2.8322 -3.2334,-11.2788 0,0 0.8119,2.8322 1.2333,5.5925 1.2333,8.0664 0,13.7482 -9.9841,31.2891 -28.0507,38.4003 -18.0664,7.1111 -25.6733,7.5852 -41.3625,7.5852 -3.6531,0 -7.5398,-0.1383 -11.5868,-0.4258 -28.6094,-2.0325 -60.1544,-11.5193 -77.4384,-32.2855 C 144.7344,201.3812 109.2946,213.4528 81,216.9552 75.4465,217.6427 70.3755,218 66.0853,218 47.5434,218 11.8859,212.3112 2.8526,187.1851 1.4263,182.4443 0,177.7035 0,172.9628 0,169.7112 0.4473,166.3109 1.3533,163 c 3.0567,-11.1713 -0.906,3.3109 0,0 3.0567,-11.1713 11.3349,-19.6858 25.271,-19.6858 3.8035,0 10.4596,1.3129 14.7384,5.6889 -3.8035,-1.3128 -9.0332,-2.6255 -9.9841,-2.6255 -10.1501,0 -14.1557,10.0517 -14.6784,16.6223 -0.0404,0.508 0.5227,-6.5706 0,0 -0.0404,0.508 -0.06,0.987 -0.06,1.4294 0,8.5335 5.2297,14.2223 13.3121,14.2223 9.8125,0 22.3794,-7.1892 36.1289,-15.6324 19.5598,-12.0113 -13.7495,8.4432 0,0 4.8489,-2.9776 9.8448,-5.4095 14.9188,-8.4386 15.3943,-9.1902 29.0553,-16.0801 42.8029,-16.0801 1.3153,0 8.3301,0.4375 12.2759,1.3129 3.069,0.8751 6.5764,2.1879 10.0837,3.9384 3.5074,1.7504 9.2069,7.0017 10.5222,7.0017 0.8769,0 5.6995,-4.3759 8.7685,-6.1264 5.2611,-3.5009 19.7291,-6.1266 26.3055,-6.1266 17.3731,0 30.1526,6.5399 43.2413,15.3703 z"
   id="path5" />
</svg>