<?xml version="1.0" encoding="UTF-8" standalone="no"?>
<!-- Created with Inkscape (http://www.inkscape.org/) -->

<svg
   xmlns:dc="http://purl.org/dc/elements/1.1/"
   xmlns:cc="http://creativecommons.org/ns#"
   xmlns:rdf="http://www.w3.org/1999/02/22-rdf-syntax-ns#"
   xmlns:svg="http://www.w3.org/2000/svg"
   xmlns="http://www.w3.org/2000/svg"
   version="1.1"
   width="98.348579"
   height="48.220165"
   viewBox="0 0 278.13667 136.36132"
   id="Layer_1"
   xml:space="preserve"><metadata
   id="metadata37"><rdf:RDF><cc:Work
       rdf:about=""><dc:format>image/svg+xml</dc:format><dc:type
         rdf:resource="http://purl.org/dc/dcmitype/StillImage" /><dc:title></dc:title></cc:Work></rdf:RDF></metadata><defs
   id="defs35" />

<g
   transform="translate(-1.6606171,-86.865)"
   id="g5">
	
</g>


<g
   transform="translate(-1.6606171,-86.865)"
   id="g13">
	
</g>

<g
   transform="translate(-1.6606171,-86.865)"
   id="g19">
	
</g>
<g
   transform="translate(-1.6606171,-86.865)"
   id="g23">
	
</g>

<g
   transform="translate(-1.6606171,-86.865)"
   id="g29">
	<path
   d="m 142.736,165.003 c 0,-1.559 1.275,-2.834 2.834,-2.834 h 96.736 c 1.559,0 2.834,1.275 2.834,2.834 v 14.516 c 0,1.56 -1.275,2.834 -2.834,2.834 H 145.57 c -1.559,0 -2.834,-1.274 -2.834,-2.834 v -14.516 l 0,0 z m 106.68,55.875 v -80.169 c 0,0 -0.853,-11.941 7.676,-15.779 8.529,-3.837 13.113,-1.492 13.859,-1.012 0.746,0.48 5.543,2.559 7.516,7.302 1.974,4.744 1.227,5.491 1.014,8.582 -0.214,3.092 -2.187,5.971 -2.72,6.451 -0.532,0.479 -5.489,7.676 -6.556,8.795 -1.065,1.119 -4.53,8.262 -4.53,9.436 0,1.172 0,56.396 0,56.396 0,0 -0.267,2.346 -7.729,2.346 -7.462,0 -8.53,-2.348 -8.53,-2.348 z M 145.57,157.917 c -1.559,0 -2.834,-1.275 -2.834,-2.834 V 89.69 c 0,-1.559 1.275,-2.834 2.834,-2.834 h 116.306 c 1.56,0 2.834,1.275 2.834,2.834 v 26.008 c 0,1.559 -1.273,2.886 -2.833,2.949 0,0 -3.694,0.149 -7.932,2.374 -9.09,4.773 -8.864,15.869 -8.864,15.869 0.032,1.559 0.059,4.109 0.059,5.668 v 12.525 c 0,1.559 -1.275,2.834 -2.834,2.834 H 145.57 z M 36.44,189.439 c 0.003,-1.559 1.275,-2.834 2.827,-2.834 h 203.149 c 1.552,0 2.821,1.275 2.821,2.834 v 22.05 c 0,1.56 -1.27,2.834 -2.821,2.834 H 39.218 c -1.553,0 -2.819,-1.274 -2.816,-2.834 l 0.038,-22.05 z m -0.008,1.041 m 102.405,-25.477 c 0,-1.559 -1.274,-2.834 -2.834,-2.834 H 39.267 c -1.56,0 -2.834,1.275 -2.834,2.834 v 14.516 c 0,1.56 1.274,2.834 2.834,2.834 h 96.735 c 1.56,0 2.834,-1.274 2.834,-2.834 v -14.516 l 10e-4,0 z M 32.041,220.878 v -80.169 c 0,0 0.854,-11.941 -7.676,-15.779 -8.529,-3.837 -13.113,-1.492 -13.859,-1.012 -0.746,0.48 -5.543,2.559 -7.516,7.302 -1.973,4.744 -1.226,5.491 -1.013,8.582 0.213,3.092 2.186,5.971 2.719,6.451 0.533,0.479 5.49,7.676 6.556,8.795 1.066,1.119 4.53,8.262 4.53,9.436 0,1.172 0,56.396 0,56.396 0,0 0.267,2.346 7.729,2.346 7.462,0 8.53,-2.348 8.53,-2.348 z M 30.758,98.276 m 105.244,59.641 c 1.56,0 2.834,-1.275 2.834,-2.834 V 89.69 c 0,-1.559 -1.274,-2.834 -2.834,-2.834 H 19.696 c -1.559,0 -2.834,1.275 -2.834,2.834 v 26.008 c 0,1.559 1.274,2.886 2.833,2.949 0,0 3.695,0.149 7.932,2.374 9.09,4.773 8.864,15.869 8.864,15.869 -0.032,1.559 -0.058,4.109 -0.058,5.668 v 12.525 c 0,1.559 1.274,2.834 2.834,2.834 h 96.735 z m 73.127,-35.079"
   id="path31" />
</g>
</svg>