<?xml version="1.0" encoding="UTF-8" standalone="no"?>
<!-- Created with Inkscape (http://www.inkscape.org/) -->

<svg
   xmlns:dc="http://purl.org/dc/elements/1.1/"
   xmlns:cc="http://creativecommons.org/ns#"
   xmlns:rdf="http://www.w3.org/1999/02/22-rdf-syntax-ns#"
   xmlns:svg="http://www.w3.org/2000/svg"
   xmlns="http://www.w3.org/2000/svg"
   version="1.1"
   width="32.1875"
   height="21.7188"
   viewBox="0 0 32.1875 21.7188"
   id="site.fw-Page%201"
   xml:space="preserve"><metadata
   id="metadata23"><rdf:RDF><cc:Work
       rdf:about=""><dc:format>image/svg+xml</dc:format><dc:type
         rdf:resource="http://purl.org/dc/dcmitype/StillImage" /><dc:title></dc:title></cc:Work></rdf:RDF></metadata><defs
   id="defs21" />
	
<path
   d="m 15.28201,14.73 c 0.0859,0.1975 0.20442,0.3751 0.33638,0.5442 0.14695,0.2086 0.34843,0.3392 0.58016,0.4362 0.26243,0.1163 0.52614,0.2306 0.79401,0.334 0.2799,0.097 0.57576,0.122 0.86956,0.1359 0.26261,0.029 0.52251,0.069 0.78201,0.1168 0.24019,0.05 0.47715,0.062 0.71964,0.033 0.30529,-4e-4 0.57883,-0.1295 0.86206,-0.2273 0.29605,-0.1221 0.59125,-0.2413 0.88309,-0.3738 0.34247,-0.1328 0.69168,-0.2382 1.05162,-0.3105 0.35783,-0.06 0.72199,-0.061 1.08382,-0.068 0.21146,0.01 0.4253,-0.019 0.63548,0.014 0.0245,0 0.27263,0.06 0.29805,0.065 0.25695,0.073 0.50859,0.179 0.73547,0.3205 0.14987,0.099 0.2781,0.2231 0.41548,0.3369 0.0365,0.021 0.0797,0.052 0.1248,0.053 0.10796,5e-4 0.2924,-0.099 0.38352,-0.152 0.0308,-0.017 0.0616,-0.033 0.0924,-0.05 -0.36176,0.2055 -0.7204,0.4165 -1.08528,0.6164 -0.0281,0.015 0.0494,-0.041 0.0736,-0.062 0.0808,-0.071 0.15605,-0.1461 0.23041,-0.2235 0.15472,-0.185 0.27741,-0.3927 0.39832,-0.6004 0.10867,-0.1775 0.23687,-0.3422 0.37802,-0.4948 0,0 1.25698,-0.53 1.25698,-0.53 l 0,0 c -0.13133,0.1565 -0.27888,0.2987 -0.39248,0.4705 -0.11931,0.2154 -0.24823,0.4235 -0.38842,0.6262 -0.41456,0.5184 -1.03499,0.8112 -1.62797,1.0959 -0.20822,0.079 -0.42055,0.1377 -0.60642,-0.025 -0.12688,-0.114 -0.25327,-0.2287 -0.39733,-0.3213 -0.21825,-0.1285 -0.45278,-0.2348 -0.70112,-0.2887 -0.30209,-0.061 -0.60454,-0.07 -0.9125,-0.057 -0.35652,0 -0.715,0.014 -1.0655,0.086 -0.35619,0.08 -0.70314,0.1935 -1.0389,0.337 -0.29171,0.1298 -0.58841,0.2462 -0.88617,0.3614 -0.29146,0.1029 -0.57992,0.2056 -0.89347,0.2091 -0.24888,0.015 -0.49362,-0.017 -0.73806,-0.065 -0.25508,-0.045 -0.5119,-0.081 -0.76974,-0.1054 -0.30363,-0.021 -0.607,-0.062 -0.8929,-0.1721 -0.26902,-0.1085 -0.5385,-0.2162 -0.80264,-0.3362 -0.24322,-0.1178 -0.45683,-0.2681 -0.61572,-0.4913 -0.14008,-0.1793 -0.26306,-0.3683 -0.36907,-0.5699 0,0 1.19888,-0.6694 1.19888,-0.6694 z m -5.58444,0.7128 c -0.47227,0.5636 -1.08536,0.7936 -1.74832,1.1703 -0.20047,0.1202 -0.41281,0.2037 -0.64161,0.2487 -0.21111,0.024 -0.42003,0.028 -0.62976,0.064 -0.22239,0.032 -0.44663,0.046 -0.67098,0.053 C 5.73273,16.9418 5.467,16.8415 5.21984,16.7194 4.97435,16.6039 4.75387,16.4433 4.51506,16.315 4.38541,16.242 4.25538,16.1689 4.12501,16.0967 c 0,0 1.13047,-0.7378 1.13047,-0.7378 l 0,0 c 0.13157,0.071 0.26305,0.1425 0.39276,0.217 0.23381,0.1321 0.45957,0.2794 0.70129,0.3969 0.23781,0.1079 0.492,0.2041 0.75679,0.2005 0.22129,-0.01 0.44234,-0.028 0.66101,-0.065 0.2077,-0.028 0.41924,-0.023 0.62375,-0.074 0.21827,-0.062 0.41821,-0.163 0.61833,-0.2686 -0.3484,0.2041 -0.69747,0.4071 -1.0452,0.6124 -0.0381,0.023 0.0796,-0.039 0.11631,-0.064 0.13562,-0.091 0.23579,-0.2256 0.35676,-0.3336 0,0 1.26029,-0.5385 1.26029,-0.5385 z M 6.58424,8.6372 c 0.0445,0.2156 0.16543,0.4039 0.27906,0.5888 0.10761,0.1324 0.21484,0.2672 0.33927,0.3843 0.0979,0.1202 0.20926,0.2266 0.3265,0.3277 0.14904,0.091 0.31006,0.1643 0.47067,0.2331 0.18522,0.068 0.36914,0.1397 0.55823,0.1968 0.20461,0.057 0.4167,0.07 0.62777,0.078 0.25209,0.01 0.50428,0.01 0.75642,0 0.21649,0.021 0.41428,-0.035 0.61657,-0.1009 -0.28241,0.1831 0.55639,-0.31 0.27156,-0.145 -2.26665,1.3127 -0.48766,0.2963 0.27491,-0.1581 -2.04384,1.194 -1.0326,0.6068 -0.58229,0.3048 0.51994,-0.32 0.0857,-0.054 1.37387,-0.7942 0.0343,-0.02 0.13768,-0.079 0.10334,-0.059 -0.35356,0.2034 -1.41065,0.8199 -1.06099,0.6098 0.17609,-0.1058 2.89797,-1.6734 0.19577,-0.1162 0.59013,-0.3682 1.07429,-0.7773 1.7448,-0.8342 0.21258,-0.032 0.3742,0.01 0.57167,0.079 0.16153,0.072 0.29234,0.1845 0.42344,0.2998 0.15303,0.1242 0.3004,0.2546 0.45467,0.3776 0.16933,0.1219 0.35269,0.2153 0.55053,0.2806 0.28706,0.079 0.56596,0.1843 0.8541,0.2591 0.32755,0.099 0.65851,0.1795 0.99713,0.2289 0.34277,0.025 0.68229,0.078 1.02464,0.1085 0.34257,0.026 0.68633,0.029 1.02972,0.032 0.25869,0 0.53517,-0.011 0.76113,-0.1492 0.43105,-0.286 0.0347,-0.021 -0.99669,0.5653 -0.034,0.019 0.0658,-0.042 0.099,-0.063 0.0663,-0.041 0.13099,-0.085 0.19845,-0.1246 0.42773,-0.2497 0.85734,-0.4962 1.28601,-0.7443 0.26023,-0.1361 0.5078,-0.2985 0.77524,-0.42 0.16784,-0.088 0.33834,-0.1682 0.50663,-0.2553 0.18798,-0.058 0.35519,-0.1629 0.53983,-0.2301 0.17235,-0.095 0.34875,-0.1798 0.53125,-0.2535 0.0299,-0.015 0.0597,-0.031 0.0896,-0.046 -0.0648,0.026 0.2421,-0.1391 0.18166,-0.1041 -0.36084,0.2084 -0.72209,0.4162 -1.08465,0.6217 -0.0264,0.015 0.0499,-0.035 0.0761,-0.05 0.41434,-0.2406 0.8304,-0.4782 1.24561,-0.7173 0.026,-0.015 0.10381,-0.059 0.078,-0.044 -2.46519,1.4205 -0.3384,0.1896 0.1762,-0.095 0.0889,-0.049 0.23604,-0.085 0.33535,-0.1298 0.20015,-0.1114 0.43441,-0.1116 0.64559,-0.1824 0.17018,-0.046 0.32983,-0.1138 0.50518,-0.1401 0.24959,-0.03 0.48764,-0.1155 0.73372,-0.1662 0.24417,-0.056 0.48386,-0.1287 0.72911,-0.18 0.21226,-0.042 0.42854,-0.053 0.64432,-0.058 0.20088,0 0.40179,-4e-4 0.60269,0 0.21902,3e-4 0.43804,0 0.65706,9e-4 0.23142,0.012 0.34991,0.146 0.44615,0.3394 0.07,0.157 0.14115,0.313 0.20568,0.4726 0.01,0.029 0.0201,0.059 0.0301,0.088 0,0 -1.19672,0.6591 -1.19672,0.6591 l 0,0 C 27.5782,9.3855 27.5697,9.3585 27.561,9.3315 27.498,9.1756 27.42737,9.0234 27.36033,8.8693 27.27143,8.6967 27.20525,8.6523 27.00048,8.6531 c -0.21914,-6e-4 -0.43827,0 -0.65741,-9e-4 -0.20064,-3e-4 -0.40133,-10e-5 -0.60191,0.01 -0.20967,0.01 -0.41939,0.026 -0.62418,0.075 -0.24315,0.059 -0.48471,0.1241 -0.72891,0.1788 -0.24651,0.057 -0.48878,0.1323 -0.73971,0.1689 -0.16865,0.045 -0.33189,0.1081 -0.50242,0.147 -0.21565,0.042 -0.42722,0.096 -0.62625,0.1926 -0.0786,0.032 -0.15814,0.061 -0.2361,0.094 -0.0332,0.014 -0.12916,0.064 -0.0982,0.046 2.24336,-1.332 0.53124,-0.275 -0.25538,0.1441 2.39261,-1.391 0.2958,-0.1369 -0.51348,0.2847 -0.17916,0.082 -0.35382,0.1729 -0.53405,0.2524 -0.17788,0.081 -0.35573,0.1613 -0.53518,0.2385 -0.16932,0.079 -0.33068,0.174 -0.50133,0.2506 -0.25774,0.1351 -0.51127,0.2786 -0.76439,0.4221 0.34382,-0.1999 0.68648,-0.4018 1.03147,-0.5997 0.0349,-0.02 -0.0677,0.044 -0.1012,0.066 -0.24724,0.1659 0.0631,-0.033 -0.19384,0.117 -0.41792,0.2445 -0.83294,0.4938 -1.25106,0.7379 -0.0288,0.017 -0.0597,0.03 -0.0895,0.045 -0.25241,0.083 -0.51592,0.1 -0.78062,0.089 -0.3466,0 -0.6937,-0.01 -1.03906,-0.04 -0.34308,-0.036 -0.685,-0.081 -1.02808,-0.1164 -0.34091,-0.059 -0.6763,-0.1413 -1.00832,-0.2388 -0.29091,-0.083 -0.57821,-0.1788 -0.86912,-0.262 -0.20576,-0.08 -0.40225,-0.18 -0.57741,-0.3161 -0.15571,-0.124 -0.30269,-0.2582 -0.45998,-0.3802 -0.12084,-0.1012 -0.24168,-0.203 -0.39262,-0.2571 -0.1773,-0.055 -0.35358,-0.057 -0.53728,-0.029 -0.53139,0.085 -1.37666,0.6821 0.61896,-0.4714 -3.52701,2.0472 -0.0686,0.039 -0.1974,0.1155 -0.41955,0.2479 -0.84216,0.4905 -1.26386,0.7347 -0.0343,0.02 -0.13822,0.077 -0.10403,0.057 0.35177,-0.2054 0.704,-0.41 1.05676,-0.6137 0.0358,-0.021 -0.0706,0.043 -0.10583,0.065 -0.23471,0.1333 0.021,-0.019 -0.20012,0.1339 -0.48561,0.3351 -1.14711,0.4944 -1.54313,0.9089 -0.0311,0.017 -0.12421,0.07 -0.0934,0.052 0.35768,-0.2079 1.43598,-0.8223 1.07421,-0.6216 -0.46963,0.2605 -1.001,0.6527 -1.54737,0.8501 -0.2084,0.059 -0.41951,0.077 -0.63607,0.065 -0.25433,-8e-4 -0.50883,0 -0.76303,-0.01 -0.21925,-0.013 -0.43786,-0.04 -0.64809,-0.1064 -0.1921,-0.063 -0.38249,-0.13 -0.569,-0.208 C 6.69359,10.8455 6.51669,10.7742 6.3681,10.6587 6.2485,10.5559 6.13879,10.4426 6.03556,10.3234 5.90968,10.1927 5.79111,10.0535 5.68513,9.9063 5.56716,9.7058 5.44769,9.5036 5.37262,9.2822 c 0,0 1.2116,-0.6477 1.2116,-0.6477 z M 4.25656,6.1328 C 3.89721,6.3384 3.53841,6.545 3.1785,6.7497 3.1428,6.7697 3.2482,6.7067 3.28384,6.6857 3.7076,6.4427 4.12981,6.197 4.55657,5.9594 4.91422,5.7602 3.14002,6.7807 3.49116,6.5702 3.58426,6.5142 6.46861,4.8536 3.6725,6.4641 4.13557,6.1603 4.61802,5.9082 5.10508,5.6301 5.19158,5.5811 5.28014,5.5461 5.36342,5.4916 5.80092,5.256 5.60683,5.3596 4.3477,6.0791 4.3203,6.0951 4.4014,6.0461 4.4279,6.0291 4.5124,5.9741 4.59647,5.9187 4.68,5.8625 4.83986,5.7392 4.9896,5.6033 5.13488,5.4633 5.2808,5.3449 5.41753,5.2175 5.55214,5.0867 5.6799,4.9766 5.79433,4.8528 5.91701,4.7375 6.0669,4.6021 6.15347,4.422 6.23951,4.2432 6.33761,4.0685 6.39144,3.8763 6.46188,3.6904 6.49518,3.6084 6.51208,3.5183 6.5641,3.4449 6.5979,3.3969 6.68343,3.3157 6.7326,3.2863 7.15352,3.0344 7.5802,2.7923 8.00399,2.5454 8.25289,2.4614 8.5162,2.3992 8.77983,2.4205 c 0.20068,0.044 0.35433,0.1474 0.48177,0.3049 0.13093,0.1388 0.22031,0.3081 0.32443,0.4663 0.10433,0.1955 0.24731,0.3641 0.3789,0.5408 0.13057,0.1776 0.26,0.3546 0.39755,0.5266 0.14021,0.1874 0.32396,0.3296 0.53033,0.4365 0.21548,0.1116 0.4484,0.1503 0.68212,0.2012 0.30178,0.065 0.61077,0.081 0.91829,0.092 0.27566,0.01 0.55144,0.01 0.82715,0.01 0.27957,-0.031 0.55643,-0.071 0.82911,-0.1407 0.3128,-0.081 0.6124,-0.2 0.92423,-0.2858 0.28942,-0.083 0.55685,-0.2202 0.84141,-0.3153 0.24039,-0.084 0.47695,-0.1764 0.71416,-0.2689 0.21694,-0.076 0.42123,-0.1763 0.64467,-0.2348 0.18613,-0.081 0.38772,-0.1159 0.58294,-0.1695 0.18364,-0.087 0.37966,-0.1289 0.58068,-0.146 0.25433,-2e-4 0.50434,-0.048 0.75629,-0.077 0.22096,-0.026 0.44343,-0.027 0.66554,-0.03 0.21613,0.01 0.3933,0.1 0.57102,0.2134 0.16258,0.084 0.29239,0.216 0.43506,0.328 0.11365,0.1059 0.22388,0.2151 0.32972,0.3289 0.11049,0.1443 0.2217,0.2778 0.37359,0.3799 0.28644,0.1312 0.61343,0.127 0.92254,0.139 0.33638,0.01 0.67288,0 1.00932,0 0.29154,0 0.5831,0 0.87465,0 0.34904,0.018 0.6944,-0.01 1.04072,-0.048 0.0452,-0.01 0.0912,-0.017 0.13569,-0.03 0.0976,-0.028 0.14311,-0.054 0.23123,-0.102 0.0385,-0.021 0.15245,-0.087 0.11438,-0.065 -1.08376,0.6209 -1.37339,0.8248 -0.93995,0.526 0.15829,-0.1237 0.3097,-0.2571 0.45567,-0.3952 0.12752,-0.1447 0.25681,-0.2876 0.39494,-0.4224 0.13989,-0.1421 0.26584,-0.2958 0.38791,-0.4531 0.45438,-0.4918 1.07377,-0.8972 1.73737,-1.0178 0.0393,-0.01 0.0786,-0.01 0.11796,-0.015 0,0 -1.08659,0.8175 -1.08659,0.8175 l 0,0 c -0.0372,0.01 -0.0744,0.016 -0.11157,0.024 -0.45165,0.148 -1.02131,0.5592 0.85933,-0.5418 0.12298,-0.072 -0.38775,0.2173 -0.26525,0.197 -0.12341,0.1567 -0.23794,0.3193 -0.37734,0.4628 -0.12785,0.1453 -0.28445,0.2637 -0.39779,0.423 -0.13245,0.1575 -0.30144,0.2821 -0.45452,0.4181 -0.47055,0.4028 -0.10035,0.096 -1.37715,0.8261 -0.15631,0.089 -0.33124,0.1352 -0.50927,0.1533 -0.34874,0.032 -0.69724,0.041 -1.04748,0.036 -0.29198,0 -0.58396,0 -0.87594,0 -0.33459,0 -0.66928,0 -1.00364,-0.015 C 21.07018,5.4825 20.71599,5.4835 20.41987,5.308 20.26614,5.1943 20.14376,5.0586 20.02613,4.909 19.92218,4.8015 19.81763,4.6947 19.70662,4.5945 19.57252,4.4814 19.44065,4.363 19.28425,4.2809 19.11857,4.1859 18.95563,4.1177 18.75943,4.1282 c -0.21881,0 -0.43768,0.013 -0.65512,0.039 -0.25265,0.03 -0.50488,0.062 -0.7587,0.08 -0.19619,0.034 -0.38205,0.097 -0.56995,0.1619 -0.19421,0.053 -0.39087,0.097 -0.57932,0.1698 -0.21607,0.071 -0.42102,0.1701 -0.6363,0.2437 C 15.32452,4.9166 15.08429,4.997 14.84658,5.0851 14.56865,5.19 14.2967,5.3109 14.00859,5.3876 13.69749,5.4826 13.39371,5.6022 13.07533,5.6717 12.79502,5.7327 12.51059,5.7799 12.22351,5.7902 11.94802,5.7895 11.6724,5.7901 11.39715,5.7762 11.08421,5.7602 10.77063,5.7352 10.46375,5.6688 10.21672,5.6218 9.97743,5.5591 9.75576,5.4352 9.54195,5.3087 9.34197,5.1565 9.1912,4.9566 9.0553,4.7818 8.92797,4.6016 8.79504,4.4246 8.66236,4.2458 8.51614,4.0765 8.40994,3.8793 8.3069,3.7265 8.21802,3.5631 8.09147,3.4274 7.98201,3.3041 7.84408,3.2277 7.6771,3.2163 7.42498,3.2273 7.17345,3.2783 6.94862,3.3967 7.29767,3.1918 7.64672,2.987 7.99578,2.7821 7.92498,2.8311 7.81083,2.8836 7.75919,2.9561 7.73619,2.9881 7.71289,3.0771 7.70199,3.1132 7.62869,3.3018 7.57448,3.4973 7.47758,3.6762 7.39698,3.8624 7.31717,4.0585 7.18013,4.2107 7.06657,4.3381 6.93545,4.4488 6.81626,4.5708 6.66869,4.6883 6.55247,4.8408 6.39827,4.9511 6.23574,5.0697 6.10497,5.234 5.94719,5.3608 5.43464,5.7444 4.84542,6.0155 4.30205,6.3496 c -0.0745,0.037 -0.0953,0.047 -0.17038,0.086 -0.03,0.016 -0.119,0.064 -0.0898,0.047 C 5.96693,5.3537 5.33049,5.7014 4.94341,5.9718 4.52521,6.2146 4.10533,6.4544 3.68881,6.7 3.33334,6.9096 5.11932,5.8765 4.76025,6.0798 4.3374,6.3193 3.92197,6.5718 3.49746,6.8084 3.1425,7.0061 4.20022,6.4002 4.55161,6.1961 c 0.0345,-0.02 -0.0689,0.04 -0.10335,0.06 -0.42044,0.2435 -0.84087,0.4871 -1.2613,0.7307 0,0 1.0696,-0.8556 1.0696,-0.8556 z M 2.28125,0 C 1.56717,0 0.96979,0.4613 0.59375,1.0938 0.21771,1.7262 0,2.5675 0,3.4688 L 0,18.25 c 0,0.9012 0.21771,1.7113 0.59375,2.3438 0.37604,0.6324 0.97342,1.125 1.6875,1.125 l 27.625,0 c 0.71407,0 1.31145,-0.4926 1.6875,-1.125 0.37605,-0.6325 0.59375,-1.4426 0.59375,-2.3438 l 0,-14.7812 c 0,-0.9013 -0.21771,-1.7426 -0.59375,-2.375 C 31.21771,0.4613 30.62032,0 29.90625,0 l -27.625,0 z m 0,1 27.625,0 c 0.26275,0 0.55114,0.1854 0.8125,0.625 0.26136,0.4396 0.46875,1.1021 0.46875,1.8438 l 0,14.7812 c 0,0.7416 -0.20739,1.4042 -0.46875,1.8438 -0.26136,0.4395 -0.54975,0.625 -0.8125,0.625 l -27.625,0 c -0.26275,0 -0.55114,-0.1855 -0.8125,-0.625 C 1.20739,19.6542 1,18.9916 1,18.25 L 1,3.4688 C 1,2.7271 1.20739,2.0646 1.46875,1.625 1.73011,1.1854 2.0185,1 2.28125,1 z"
   id="path3777"
   style="fill:#000000;fill-opacity:1;fill-rule:evenodd;stroke:none" /></svg>