<?xml version="1.0" encoding="UTF-8" standalone="no"?>
<!-- Created with Inkscape (http://www.inkscape.org/) -->

<svg
   xmlns:dc="http://purl.org/dc/elements/1.1/"
   xmlns:cc="http://creativecommons.org/ns#"
   xmlns:rdf="http://www.w3.org/1999/02/22-rdf-syntax-ns#"
   xmlns:svg="http://www.w3.org/2000/svg"
   xmlns="http://www.w3.org/2000/svg"
   xmlns:sodipodi="http://sodipodi.sourceforge.net/DTD/sodipodi-0.dtd"
   xmlns:inkscape="http://www.inkscape.org/namespaces/inkscape"
   width="381.0625"
   height="714.40625"
   id="svg3309"
   version="1.1"
   inkscape:version="0.48.2 r9819"
   sodipodi:docname="New document 12">
  <defs
     id="defs3311" />
  <sodipodi:namedview
     id="base"
     pagecolor="#ffffff"
     bordercolor="#666666"
     borderopacity="1.0"
     inkscape:pageopacity="0.0"
     inkscape:pageshadow="2"
     inkscape:zoom="0.35"
     inkscape:cx="190.5"
     inkscape:cy="357.20032"
     inkscape:document-units="px"
     inkscape:current-layer="layer1"
     showgrid="false"
     fit-margin-top="0"
     fit-margin-left="0"
     fit-margin-right="0"
     fit-margin-bottom="0"
     inkscape:window-width="469"
     inkscape:window-height="455"
     inkscape:window-x="25"
     inkscape:window-y="25"
     inkscape:window-maximized="0" />
  <metadata
     id="metadata3314">
    <rdf:RDF>
      <cc:Work
         rdf:about="">
        <dc:format>image/svg+xml</dc:format>
        <dc:type
           rdf:resource="http://purl.org/dc/dcmitype/StillImage" />
        <dc:title></dc:title>
      </cc:Work>
    </rdf:RDF>
  </metadata>
  <g
     inkscape:label="Layer 1"
     inkscape:groupmode="layer"
     id="layer1"
     transform="translate(-184.5,-175.15625)">
    <path
       inkscape:connector-curvature="0"
       d="m 443.0871,211.23029 c -10.8712,10.34017 -58.9497,157.20705 -59.1735,177.49907 -0.6668,60.59517 34.8687,40.44362 90.8178,73.99778 l -0.7144,43.42759 c -31.4919,-10.00203 -70.1018,-16.67714 -80.6563,-16.67714 -7.0371,0 -95.0448,6.67511 -144.3187,16.67714 -14.0694,3.33159 -24.6286,13.31685 -24.6572,29.93434 0,56.25628 129.2467,62.8457 128.9396,95.74023 0,6.56087 -4.0247,58.88294 -7.7921,91.41556 -24.219,-9.74962 -44.9921,-19.50386 -65.7724,-32.53262 l -13.9075,0 c -6.9537,0 0,13.02876 0,19.53242 -6.9585,3.25058 -13.9146,6.50121 -13.9455,16.24363 -0.021,6.48932 3.4339,9.73288 6.8774,16.21507 10.4141,-3.24115 13.9242,-12.96684 24.381,-22.70445 10.3759,6.48938 24.2094,12.9787 34.5449,22.70445 -20.8755,12.94775 -52.0745,19.41337 -79.7799,22.64732 -6.93,3.23155 -20.7755,6.45836 -27.6983,9.68517 -3.4674,12.89783 -13.8384,28.99381 -13.8384,35.42121 0,9.63525 10.3474,16.05083 13.7956,16.05083 10.3448,0 17.2915,-25.69322 20.7588,-32.13482 34.5805,-6.43939 100.391,-22.56403 107.3115,-22.56403 13.8407,0 17.2081,9.68049 17.1152,19.3467 l -0.5476,57.77557 c 3.3505,9.58527 10.1376,19.16557 10.0708,25.54537 3.4412,0 0,3.1911 10.283,3.1911 10.314,0 14.0481,-25.54055 14.0481,-25.54055 0.3096,-25.61934 -13.7718,0 0.9763,-83.545 l 13.8433,0 c 31.0561,6.45362 65.5437,12.9073 100.0647,16.13171 6.7347,9.65913 13.3956,22.52819 16.6605,32.16818 l 17.2557,0 c 0,-3.21007 3.584,-6.42506 3.7817,-16.06745 0.2619,-12.88099 -16.9534,-16.10073 -9.7138,-32.23244 -41.3581,-9.69705 -82.8139,-16.16507 -124.26,-25.87887 7.0157,-6.48219 24.5381,-19.4585 31.4775,-19.4585 10.4115,0 10.2139,12.97631 17.0486,19.4585 6.9848,-3.24115 14.0242,-9.72575 14.1837,-19.4585 0.2382,-9.74962 -13.6788,-13.0002 -9.9496,-29.27719 -3.4244,-3.25543 0,-3.25543 -10.3782,-3.25543 -6.9561,0 -45.485,22.783 -69.8969,32.53262 0.2857,-26.01708 -2.6267,-78.2963 -2.5554,-84.85469 0.2383,-13.12886 -6.6013,-36.15719 21.3614,-36.15719 10.4855,0 2.6196,11.91421 10.2782,16.45559 7.6538,4.53897 15.4554,5.44397 17.4581,0 2.0004,-5.45106 -6.8084,-13.16685 -10.2162,-19.7538 24.6167,-9.89245 52.7056,-16.49135 77.3771,-26.40276 6.2655,-11.09743 12.4953,-11.39273 18.063,-29.80353 -6.8942,-6.63941 -13.6741,-19.93005 -24.0952,-26.58367 l 0.7383,-43.3752 c 14.1504,-3.34587 60.0879,-10.04247 57.1135,-36.87393 l 7.7611,-203.99471 c -6.5847,-27.56729 -34.8831,-44.84439 -59.9546,-44.84439 -17.906,0 -39.4982,6.91556 -50.4861,24.17371 z"
       id="path3-5"
       style="fill:#111410;stroke:#111410;stroke-width:23.81418419" />
  </g>
</svg>
