<?xml version="1.0" encoding="UTF-8" standalone="no"?>
<!-- Created with Inkscape (http://www.inkscape.org/) -->

<svg
   xmlns:dc="http://purl.org/dc/elements/1.1/"
   xmlns:cc="http://creativecommons.org/ns#"
   xmlns:rdf="http://www.w3.org/1999/02/22-rdf-syntax-ns#"
   xmlns:svg="http://www.w3.org/2000/svg"
   xmlns="http://www.w3.org/2000/svg"
   xmlns:sodipodi="http://sodipodi.sourceforge.net/DTD/sodipodi-0.dtd"
   xmlns:inkscape="http://www.inkscape.org/namespaces/inkscape"
   width="834.98749"
   height="705.24841"
   id="svg3283"
   version="1.1"
   inkscape:version="0.48.2 r9819"
   sodipodi:docname="New document 10">
  <defs
     id="defs3285" />
  <sodipodi:namedview
     id="base"
     pagecolor="#ffffff"
     bordercolor="#666666"
     borderopacity="1.0"
     inkscape:pageopacity="0.0"
     inkscape:pageshadow="2"
     inkscape:zoom="0.35"
     inkscape:cx="86.77946"
     inkscape:cy="221.19563"
     inkscape:document-units="px"
     inkscape:current-layer="layer1"
     showgrid="false"
     fit-margin-top="0"
     fit-margin-left="0"
     fit-margin-right="0"
     fit-margin-bottom="0"
     inkscape:window-width="469"
     inkscape:window-height="455"
     inkscape:window-x="200"
     inkscape:window-y="200"
     inkscape:window-maximized="0" />
  <metadata
     id="metadata3288">
    <rdf:RDF>
      <cc:Work
         rdf:about="">
        <dc:format>image/svg+xml</dc:format>
        <dc:type
           rdf:resource="http://purl.org/dc/dcmitype/StillImage" />
        <dc:title></dc:title>
      </cc:Work>
    </rdf:RDF>
  </metadata>
  <g
     inkscape:label="Layer 1"
     inkscape:groupmode="layer"
     id="layer1"
     transform="translate(-288.22054,-48.309411)">
    <path
       inkscape:connector-curvature="0"
       d="m 636.65774,48.309411 -26.1574,13.60436 c -0.3349,2.47776 -0.4353,4.91208 -1.038,7.32285 -0.9376,3.46224 -2.1095,7.03157 -3.1475,10.4637 -1.2054,4.20546 -2.7456,7.86863 -5.2335,11.51161 -2.4108,3.92432 -5.2669,8.09967 -8.3709,11.508339 -3.1474,3.70998 -5.9165,7.05503 -9.4155,10.4636 -2.8127,2.84609 -6.3954,5.75919 -9.419,8.37096 -3.2479,2.87959 -6.0907,5.59168 -9.4156,8.37087 -2.5113,2.54477 -4.8082,5.82619 -7.3262,8.37086 -3.3919,3.47229 -6.4389,6.63651 -9.4156,10.4637 -3.4957,4.82163 -6.8775,9.84416 -8.3709,15.69371 -1.0045,5.34067 -1.3059,11.31081 -1.038,16.74183 0,4.76138 0,8.97023 1.038,13.60436 1.0045,3.65312 2.4778,7.07173 4.1855,10.4637 1.5402,3.71327 3.1474,6.83732 6.2781,9.4155 2.8461,2.57827 5.5784,5.72578 8.3709,8.37095 3.8306,3.14742 8.2571,6.90771 12.5564,9.41898 5.6721,3.85056 10.8889,6.91764 16.7418,10.46361 l 25.1127,-15.6971 c -6.017,-3.21451 -12.1144,-6.66325 -17.7898,-10.46033 -4.0649,-2.61167 -7.8553,-6.27146 -11.5083,-9.41896 -2.7792,-2.57818 -5.6789,-4.67759 -8.371,-7.32286 -2.8126,-2.31036 -4.9622,-4.97233 -6.2781,-8.37087 -1.5738,-3.31491 -3.2479,-6.91436 -4.1855,-10.46698 -1.0045,-4.43659 -0.9041,-9.07072 -1.038,-13.60107 -0.3348,-5.23011 0.7702,-10.62436 2.076,-15.69709 1.9421,-5.38421 5.0259,-10.0585 8.3709,-14.64571 2.98,-3.85066 7.1856,-6.89429 10.4636,-10.46698 2.7457,-2.31036 4.5002,-5.11301 7.3229,-7.32286 3.3952,-2.64527 6.0103,-5.75919 9.419,-8.37096 3.0804,-2.67868 6.6799,-5.32386 9.4155,-8.37086 3.5091,-3.411959 5.9166,-8.103049 9.419,-11.508339 2.9465,-3.67649 5.0627,-7.35635 7.3228,-11.51161 2.8796,-3.65979 3.6062,-8.38767 5.2335,-12.55644 1.105,-3.49228 2.4109,-6.86407 3.1475,-10.46361 0.5023,-2.61168 0.9375,-5.72569 1.038,-8.37086 z m 113.0072,4.18547 -25.1127,15.69373 c 1.038,1.30588 2.0759,1.84162 3.1474,3.1475 1.7077,3.04701 3.8741,6.23797 5.2335,9.4156 1.2724,3.71665 1.1719,7.57397 1.038,11.51161 0,4.42318 0.3348,9.187929 0,13.601079 -0.3683,4.61733 -0.6027,9.19121 -2.076,13.60435 -1.3058,4.32944 -2.5113,8.85978 -5.2335,12.55635 -2.1764,3.047 -5.4846,5.96009 -8.3709,8.37096 -3.3584,2.81259 -6.8474,4.84499 -10.4636,7.32285 -3.4689,2.27686 -7.2124,4.74796 -10.4636,7.32614 -3.3886,2.14304 -6.5896,4.44663 -9.4156,7.32623 -2.7457,3.04701 -5.3909,5.7559 -7.3262,9.41559 -2.2434,4.38639 -3.4756,9.61313 -3.1475,14.64909 -0.034,3.9611 -0.3348,7.55388 0,11.50833 0.3348,4.18547 0.3348,8.69236 2.076,12.55635 1.9086,4.03477 4.3361,8.16 7.3262,11.51171 3.181,3.70998 6.7972,6.23796 10.4636,9.41559 4.6777,3.81039 10.0719,7.58063 14.6491,11.51162 l 24.0647,-15.6971 c -4.8484,-3.6397 -8.9435,-7.63431 -13.6011,-11.50834 -3.499,-3.114 -7.3664,-5.89647 -10.4636,-9.41897 -2.8461,-3.11391 -4.5069,-6.64982 -6.2782,-10.46022 -1.5402,-3.5727 -1.9085,-7.67447 -2.076,-11.51171 0,-3.90414 -0.017,-7.60072 0,-11.51162 -0.3348,-4.69109 2.0425,-8.59186 4.1855,-12.55635 2.3104,-3.28142 4.2223,-6.83741 7.3229,-9.41559 2.8126,-2.84609 6.2848,-3.86736 9.4189,-6.27821 3.0805,-2.8126 7.1086,-4.912 10.4636,-7.32286 3.5828,-2.64518 7.3798,-5.12295 10.4637,-8.37087 3.2479,-2.17644 5.2,-5.19333 7.3228,-8.37095 2.5783,-4.0147 3.7535,-9.1611 5.2335,-13.60436 1.3393,-4.65422 1.7746,-8.789489 2.076,-13.604359 0.3348,-4.47348 0,-9.11765 0,-13.60107 0,-4.23907 -0.7367,-8.56511 -2.076,-12.55635 -1.5068,-3.34841 -3.4187,-7.28268 -5.2335,-10.4636 -1.0714,-1.4733 -2.009,-2.74569 -3.1474,-4.18548 z m 115.0999,1.03798 -26.1574,13.60098 c 0.6027,6.01368 2.2099,12.0876 4.1854,17.78655 2.143,4.83833 4.3429,9.20801 7.3229,13.60436 2.1764,2.879579 4.1252,6.539379 6.2782,9.418969 2.98,3.63632 5.3841,7.26589 7.3262,11.50833 1.8081,4.02801 1.8416,8.21011 2.076,12.55634 0.3348,4.42318 0.3683,9.37543 -1.038,13.60436 -0.971,4.26919 -4.2156,7.71802 -6.2782,11.50834 -2.3773,4.15863 -5.1297,6.97132 -8.3709,10.4636 -2.5113,2.34385 -5.5348,4.37297 -8.3709,6.27822 0.8036,-0.46883 -4.6007,2.98 -3.1475,2.07594 -4.1486,2.41086 -8.4077,4.93217 -12.5563,7.32623 -4.1821,2.67868 -6.8441,5.79936 -8.3709,10.46032 -1.0045,3.98785 -1.038,8.47465 -1.038,12.55635 -0.3348,4.12176 0.9375,8.60856 2.076,12.55635 0.8036,4.22564 2.6117,7.55726 4.1854,11.51161 1.7077,3.6062 2.143,7.02153 4.1855,10.46361 0.3348,0.43532 0.7701,1.67421 1.038,2.07603 l 25.1127,-14.64908 c -0.3349,-0.43533 0.3348,-0.60274 0,-1.03797 -2.0425,-3.24792 -3.5593,-7.02491 -5.2335,-10.46032 -1.5737,-3.83724 -3.3718,-8.45129 -4.1855,-12.55635 -0.9375,-3.75353 -1.2723,-7.62756 -1.038,-11.51161 0,-3.78366 -0.3348,-6.88097 1.038,-10.4637 1.9756,-4.04144 5.5148,-7.20903 9.419,-9.41889 3.3952,-1.94203 7.0717,-3.28142 10.4636,-5.2302 0.7032,-0.40173 1.4063,-1.67412 2.076,-2.07594 3.8908,-2.67868 7.2894,-4.85176 10.4636,-8.37087 3.2479,-3.66982 7.1052,-8.20016 9.4156,-12.55643 2.2769,-3.87066 4.3361,-7.03486 5.2335,-11.50824 0.971,-4.58393 1.4398,-8.93345 1.038,-13.60446 -0.3348,-4.70104 -1.105,-9.29163 -3.1475,-13.60435 -2.076,-4.38969 -4.3328,-9.757179 -7.3262,-13.601079 -2.076,-2.9465 -4.0548,-5.55827 -6.2782,-8.37086 -2.9465,-4.08497 -5.2334,-9.05065 -7.3228,-13.60108 -1.9086,-5.56831 -2.8461,-10.84534 -3.1475,-16.74182 z m -397.6179,209.272569 0,335.88074 c 0,65.41357 204.8059,58.59632 229.1551,58.59632 100.5681,0.33482 195.5108,-3.93098 245.8936,-93.1246 0,0 0.971,0 1.038,0 l 18.8346,-1.03797 c 0,0 37.6656,-2.07603 76.38606,-23.02004 38.7171,-20.95405 80.4477,-63.95032 84.7537,-136.02715 l 0,-1.03797 c -1.105,-69.15369 -43.887,-107.83395 -83.709,-124.51553 -39.82196,-16.68149 -78.47546,-15.69372 -78.47546,-15.69372 l -7.3263,0 -11.5083,0 -475.0487,0 z m 512.7178,40.80641 c 11.1132,0.66974 22.46746,-0.0197 44.99526,9.41897 30.8886,12.9347 58.9847,35.77721 60.689,88.93914 0.027,0.83715 -0.013,1.23888 0,2.07603 -4.2257,57.73573 -34.2939,85.99255 -64.8745,102.5435 -20.83686,11.27392 -29.61956,10.65448 -40.80976,12.55635 l 0,-215.5507 z m -691.6442,376.70064 c 32.4691,49.05677 32.6599,48.71197 73.2454,73.24533 l 648.74496,0 c 40.5888,0 65.38,-56.88524 81.6162,-73.24533 l -803.60656,0 z"
       id="path3018"
       style="fill:#000000;fill-opacity:1;fill-rule:evenodd;stroke:none" />
  </g>
</svg>
