<?xml version="1.0" encoding="UTF-8" standalone="no"?>
<!-- Created with Inkscape (http://www.inkscape.org/) -->

<svg
   xmlns:dc="http://purl.org/dc/elements/1.1/"
   xmlns:cc="http://creativecommons.org/ns#"
   xmlns:rdf="http://www.w3.org/1999/02/22-rdf-syntax-ns#"
   xmlns:svg="http://www.w3.org/2000/svg"
   xmlns="http://www.w3.org/2000/svg"
   xmlns:sodipodi="http://sodipodi.sourceforge.net/DTD/sodipodi-0.dtd"
   xmlns:inkscape="http://www.inkscape.org/namespaces/inkscape"
   width="840.40649"
   height="692.73022"
   id="svg3345"
   version="1.1"
   inkscape:version="0.48.2 r9819"
   sodipodi:docname="New document 14">
  <defs
     id="defs3347" />
  <sodipodi:namedview
     id="base"
     pagecolor="#ffffff"
     bordercolor="#666666"
     borderopacity="1.0"
     inkscape:pageopacity="0.0"
     inkscape:pageshadow="2"
     inkscape:zoom="0.35"
     inkscape:cx="420.20324"
     inkscape:cy="346.36512"
     inkscape:document-units="px"
     inkscape:current-layer="layer1"
     showgrid="false"
     fit-margin-top="0"
     fit-margin-left="0"
     fit-margin-right="0"
     fit-margin-bottom="0"
     inkscape:window-width="469"
     inkscape:window-height="455"
     inkscape:window-x="75"
     inkscape:window-y="75"
     inkscape:window-maximized="0" />
  <metadata
     id="metadata3350">
    <rdf:RDF>
      <cc:Work
         rdf:about="">
        <dc:format>image/svg+xml</dc:format>
        <dc:type
           rdf:resource="http://purl.org/dc/dcmitype/StillImage" />
        <dc:title></dc:title>
      </cc:Work>
    </rdf:RDF>
  </metadata>
  <g
     inkscape:label="Layer 1"
     inkscape:groupmode="layer"
     id="layer1"
     transform="translate(45.203236,-185.99706)">
    <g
       id="g3100"
       transform="matrix(0.83645621,0,0,0.83645621,-76.137212,20.162133)">
      <path
         id="path3-2"
         d="m 948.2857,470.89045 c -31.45791,0 -56.99793,25.52997 -56.99793,56.87736 0,31.33727 25.54002,56.87736 56.99793,56.87736 31.33727,0 56.8672,-25.54009 56.8672,-56.87736 0,-31.34739 -25.52993,-56.87736 -56.8672,-56.87736 z"
         inkscape:connector-curvature="0" />
      <path
         id="path5-4"
         d="m 130.52183,470.89045 c -31.457841,0 -56.99786,25.52997 -56.99786,56.87736 0,31.33727 25.540019,56.87736 56.99786,56.87736 31.33734,0 56.87736,-25.54009 56.87736,-56.87736 0,-31.34739 -25.54002,-56.87736 -56.87736,-56.87736 z"
         inkscape:connector-curvature="0" />
      <path
         id="path7-5"
         d="m 778.99997,367.42411 c -46.6995,0 -84.57753,37.9986 -84.57753,84.70814 0,46.64929 37.87803,84.58764 84.57753,84.58764 46.70954,0 84.70813,-37.93835 84.70813,-84.58764 0,-46.70954 -37.99859,-84.70814 -84.70813,-84.70814 z"
         inkscape:connector-curvature="0" />
      <path
         id="path9-5"
         d="m 1041.7048,882.18371 h -96.44332 v -177.5144 c 0,-30.5536 -8.96212,-58.86673 -23.35979,-83.49246 8.47985,-2.48162 17.19079,-4.23989 26.38401,-4.23989 51.43171,0 93.4191,41.9873 93.4191,93.53965 v 171.7071 z"
         inkscape:connector-curvature="0" />
      <path
         id="path11-1"
         d="m 299.68699,367.42411 c -46.70954,0 -84.70813,37.9986 -84.70813,84.70814 0,46.64929 37.98855,84.58764 84.70813,84.58764 46.58897,0 84.57753,-37.93835 84.57753,-84.58764 0,-46.70954 -37.98856,-84.70814 -84.57753,-84.70814 z"
         inkscape:connector-curvature="0" />
      <path
         id="path13-7"
         d="m 130.52183,616.93696 c 9.19322,0 17.79364,1.75827 26.25347,4.23989 -14.51831,24.62573 -23.34982,52.93886 -23.34982,83.49246 v 177.5144 H 36.982182 v -171.7071 c 0,-51.54231 41.987373,-93.53965 93.539648,-93.53965 z"
         inkscape:connector-curvature="0" />
      <path
         id="path15"
         d="m 539.2832,198.25895 c -68.97423,0 -125.11814,56.1439 -125.11814,125.11813 0,69.03448 56.14391,125.23871 125.11814,125.23871 68.97423,0 125.2387,-56.20423 125.2387,-125.23871 0,-68.97423 -56.26447,-125.11813 -125.2387,-125.11813 z"
         inkscape:connector-curvature="0" />
      <path
         id="path17-1"
         d="M 914.27581,948.25422 H 766.53135 V 678.17478 c 0,-37.14457 -9.80611,-71.69699 -25.66059,-102.67262 12.10691,-3.56675 24.8166,-6.10869 38.11917,-6.10869 74.54038,0 135.28588,60.68525 135.28588,135.28588 v 243.57487 z"
         inkscape:connector-curvature="0" />
      <path
         id="path19-1"
         d="M 312.03504,678.17478 V 948.26426 H 164.40111 V 704.66931 c 0,-74.60063 60.62493,-135.28588 135.28588,-135.28588 13.30257,0 25.89169,2.54194 37.98856,6.10868 -15.83439,30.98568 -25.64051,65.52799 -25.64051,102.68267 z"
         inkscape:connector-curvature="0" />
      <path
         id="path21"
         d="m 343.01068,1026.4317 h 392.5451 V 678.17478 c 0,-108.23878 -88.10417,-196.27259 -196.27258,-196.27259 -108.29903,0 -196.27252,88.03381 -196.27252,196.27259 v 348.25692 z"
         inkscape:connector-curvature="0" />
    </g>
  </g>
</svg>
