<?xml version="1.0" encoding="UTF-8" standalone="no"?>
<!-- Created with Inkscape (http://www.inkscape.org/) -->

<svg
   xmlns:dc="http://purl.org/dc/elements/1.1/"
   xmlns:cc="http://creativecommons.org/ns#"
   xmlns:rdf="http://www.w3.org/1999/02/22-rdf-syntax-ns#"
   xmlns:svg="http://www.w3.org/2000/svg"
   xmlns="http://www.w3.org/2000/svg"
   xmlns:sodipodi="http://sodipodi.sourceforge.net/DTD/sodipodi-0.dtd"
   xmlns:inkscape="http://www.inkscape.org/namespaces/inkscape"
   width="653.5498"
   height="691.85876"
   id="svg3426"
   version="1.1"
   inkscape:version="0.48.2 r9819"
   sodipodi:docname="New document 18">
  <defs
     id="defs3428" />
  <sodipodi:namedview
     id="base"
     pagecolor="#ffffff"
     bordercolor="#666666"
     borderopacity="1.0"
     inkscape:pageopacity="0.0"
     inkscape:pageshadow="2"
     inkscape:zoom="0.35"
     inkscape:cx="326.7749"
     inkscape:cy="345.92937"
     inkscape:document-units="px"
     inkscape:current-layer="layer1"
     showgrid="false"
     fit-margin-top="0"
     fit-margin-left="0"
     fit-margin-right="0"
     fit-margin-bottom="0"
     inkscape:window-width="469"
     inkscape:window-height="455"
     inkscape:window-x="200"
     inkscape:window-y="200"
     inkscape:window-maximized="0" />
  <metadata
     id="metadata3431">
    <rdf:RDF>
      <cc:Work
         rdf:about="">
        <dc:format>image/svg+xml</dc:format>
        <dc:type
           rdf:resource="http://purl.org/dc/dcmitype/StillImage" />
        <dc:title></dc:title>
      </cc:Work>
    </rdf:RDF>
  </metadata>
  <g
     inkscape:label="Layer 1"
     inkscape:groupmode="layer"
     id="layer1"
     transform="translate(-48.225104,-186.43281)">
    <g
       transform="matrix(6.9627311,0,0,6.9627311,48.225104,182.01844)"
       id="g3002">
      <path
         style="fill:#000000"
         inkscape:connector-curvature="0"
         id="path3-4"
         d="m 13.132,76.351 c -3.601,0 -6.519,-2.918 -6.519,-6.516 0,-3.604 2.918,-6.522 6.519,-6.522 3.603,0 6.521,2.919 6.521,6.522 0,3.598 -2.918,6.516 -6.521,6.516" />
      <path
         style="fill:#000000"
         inkscape:connector-curvature="0"
         id="path5-0"
         d="M 0,100 V 87.223 c 0,-4.605 3.784,-8.351 8.398,-8.351 h 9.003 c 4.613,0 8.731,3.745 8.731,8.351 V 100 H 0 z" />
      <path
         style="fill:#000000"
         inkscape:connector-curvature="0"
         id="path7-9"
         d="m 80.738,75.799 c 3.602,0 6.521,-2.928 6.521,-6.522 0,-3.606 -2.919,-6.523 -6.521,-6.523 -3.604,0 -6.521,2.919 -6.521,6.523 0,3.594 2.917,6.522 6.521,6.522" />
      <path
         style="fill:#000000"
         inkscape:connector-curvature="0"
         id="path9-4"
         d="M 93.864,100 V 87.223 c 0,-4.605 -3.785,-8.351 -8.402,-8.351 h -8.993 c -4.62,0 -8.733,3.745 -8.733,8.351 V 100 h 26.128 z" />
      <path
         style="fill:#000000"
         inkscape:connector-curvature="0"
         id="path11-8"
         d="m 46.925,63.234 c 3.641,0 6.596,2.928 6.596,6.543 0,3.611 -2.955,6.539 -6.596,6.539 -3.645,0 -6.597,-2.928 -6.597,-6.539 0,-3.615 2.952,-6.543 6.597,-6.543" />
      <path
         style="fill:#000000"
         inkscape:connector-curvature="0"
         id="path13"
         d="m 31.039,100 5.192,-14.14 c 2.077,-7.224 8.131,-7.002 8.131,-7.002 h 2.572 2.568 c 0,0 6.048,-0.222 8.133,7.002 L 62.825,100 H 31.039 z" />
      <polygon
         style="fill:#000000"
         id="polygon15"
         points="2.941,54.975 46.925,54.975 46.925,39.504 44.356,36.935 44.356,52.4 5.499,52.4 5.499,3.206 44.356,3.206 44.356,28.479 46.925,31.045 46.925,0.634 2.941,0.634 " />
      <path
         style="fill:#000000"
         inkscape:connector-curvature="0"
         id="path17"
         d="m 80.738,26.508 c 3.602,0 6.521,-2.927 6.521,-6.522 0,-3.607 -2.919,-6.523 -6.521,-6.523 -3.604,0 -6.521,2.918 -6.521,6.523 0,3.595 2.917,6.522 6.521,6.522" />
      <path
         style="fill:#000000"
         inkscape:connector-curvature="0"
         id="path19"
         d="m 85.461,28.588 h -8.993 c -1.621,0 -3.174,0.467 -4.516,1.266 -1.594,0.634 -2.942,1.739 -3.868,3.131 L 62.679,41.139 54.481,41.136 42.899,29.555 c -0.435,-0.438 -1.142,-0.438 -1.576,0 -0.438,0.435 -0.44,1.142 -0.003,1.579 l 11.019,11.02 c -0.238,0.394 -0.612,1.193 -0.612,1.698 0,1.521 1.229,2.743 2.744,2.743 H 63.5 c 1.024,0 2.375,-0.415 2.949,-1.277 0.429,-0.637 0.863,-1.281 1.286,-1.908 v 3.556 2.753 5.842 h 3.312 22.733 0.084 V 49.719 46.966 36.939 c 0,-4.606 -3.785,-8.351 -8.403,-8.351" />
    </g>
  </g>
</svg>
