<?xml version="1.0" encoding="UTF-8" standalone="no"?>
<!-- Created with Inkscape (http://www.inkscape.org/) -->

<svg
   xmlns:dc="http://purl.org/dc/elements/1.1/"
   xmlns:cc="http://creativecommons.org/ns#"
   xmlns:rdf="http://www.w3.org/1999/02/22-rdf-syntax-ns#"
   xmlns:svg="http://www.w3.org/2000/svg"
   xmlns="http://www.w3.org/2000/svg"
   xmlns:sodipodi="http://sodipodi.sourceforge.net/DTD/sodipodi-0.dtd"
   xmlns:inkscape="http://www.inkscape.org/namespaces/inkscape"
   width="983.46521"
   height="678.46637"
   id="svg3231"
   version="1.1"
   inkscape:version="0.48.2 r9819"
   sodipodi:docname="New document 6">
  <defs
     id="defs3233" />
  <sodipodi:namedview
     id="base"
     pagecolor="#ffffff"
     bordercolor="#666666"
     borderopacity="1.0"
     inkscape:pageopacity="0.0"
     inkscape:pageshadow="2"
     inkscape:zoom="0.35"
     inkscape:cx="491.7326"
     inkscape:cy="339.23319"
     inkscape:document-units="px"
     inkscape:current-layer="layer1"
     showgrid="false"
     fit-margin-top="0"
     fit-margin-left="0"
     fit-margin-right="0"
     fit-margin-bottom="0"
     inkscape:window-width="469"
     inkscape:window-height="455"
     inkscape:window-x="100"
     inkscape:window-y="100"
     inkscape:window-maximized="0" />
  <metadata
     id="metadata3236">
    <rdf:RDF>
      <cc:Work
         rdf:about="">
        <dc:format>image/svg+xml</dc:format>
        <dc:type
           rdf:resource="http://purl.org/dc/dcmitype/StillImage" />
        <dc:title></dc:title>
      </cc:Work>
    </rdf:RDF>
  </metadata>
  <g
     inkscape:label="Layer 1"
     inkscape:groupmode="layer"
     id="layer1"
     transform="translate(116.7326,-193.12899)">
    <path
       inkscape:connector-curvature="0"
       d="m 643.9241,193.12899 c -9.6952,0 -19.4505,0.40769 -29.2743,1.16707 -84.7952,6.55281 -160.3375,38.12487 -238.8637,38.12487 -75.1221,0 -141.2676,-31.90196 -240.4199,-36.95779 -8.5241,-0.43477 -17.1484,-0.68094 -25.9675,-0.68094 -39.3187,0 -49.1789,-1.63767 -98.3272,9.82312 -34.4039,6.54938 -70.4395,16.40367 -104.8433,22.95271 l 0,8.16959 c 0,8.18613 -1.6532,19.5813 -1.6532,22.85532 0,4.91236 -0.038,21.29917 6.516,31.1223 8.1911,13.09816 24.6514,24.55673 29.5663,39.2919 4.1461,11.24763 7.7799,23.1603 11.3792,35.30458 -1.7998,-6.07231 -0.1743,-0.69742 1.0696,3.50125 5.9665,19.98398 11.7612,37.89887 18.6735,56.11729 6.5534,15.11332 13.0561,36.23908 26.1623,51.35182 34.5863,37.45507 92.6499,49.29774 137.4243,51.15759 4.0058,0.16491 7.3218,0.29255 10.7957,0.29255 72.5159,0 135.9196,-22.64798 179.7314,-123.90572 5.2257,-12.69636 8.3131,-24.75028 12.3515,-38.51387 2.0671,-7.04481 1.0217,-3.57875 0,-0.0965 4.1243,-14.05796 8.0171,-27.67335 14.8805,-40.07 1.5107,-4.91171 13.5578,-8.16961 18.0898,-8.16961 3.0217,0 15.1072,-0.0809 22.6608,1.55614 4.5324,1.63768 9.0383,6.5802 12.0599,13.12957 7.0664,10.72131 11.5748,22.16716 15.5612,33.65102 4.5358,13.06827 6.9957,24.1394 10.2122,35.40158 12.086,40.80545 64.9155,105.84517 111.7483,113.40196 7.554,1.51129 13.5964,4.51866 22.6609,6.02996 13.5966,3.02259 43.8569,6.02996 46.8782,6.02996 0.5627,0 1.0355,0 1.6532,0 50.7891,-0.43262 126.3866,-17.39336 160.3772,-81.59868 12.9814,-24.87174 18.0353,-50.31667 25.5788,-79.26478 4.8333,-18.54638 10.6337,-36.67426 20.2295,-53.29698 4.915,-9.82378 14.7311,-14.7339 19.6459,-19.64594 1.6383,-1.63741 3.3067,-4.87877 3.3067,-6.51611 0,-32.74537 1.6532,-34.37954 1.6532,-39.29191 0,-3.27408 -1.6009,-14.79932 -6.5161,-16.43666 -26.2121,-9.82312 -54.1216,-14.65298 -80.3343,-21.20205 -26.2126,-6.54878 -85.1772,-14.78309 -114.6666,-14.78309 z m -485.5078,34.81807 c 33.2365,0 158.6264,9.83532 158.6264,90.0602 0,13.84539 -6.2098,33.35626 -12.2544,49.99025 -2.5327,6.97012 -4.4972,12.40255 -5.8355,17.31175 -27.1933,87.6563 -95.1748,117.87578 -158.6263,117.87578 -2.5605,0 -4.9625,-0.0872 -7.7806,-0.19298 C 73.8414,500.78301 7.6343,477.07777 -6.4349,406.41548 c -2.2513,-11.07674 -5.5643,-24.52375 -8.4612,-38.41648 -3.4271,-16.43565 -6.3218,-30.22282 -6.3218,-31.99775 l 0,-42.59838 c 1.375,-50.84228 96.1928,-62.44534 153.7638,-64.87068 11.0248,-0.46436 19.0718,-0.58354 25.8704,-0.58354 z m 433.5727,0 c 5.3509,0 11.4793,0.13383 19.8405,0.48649 48.2904,2.04314 130.7468,11.15075 148.9008,40.45896 4.9148,4.91109 8.1852,13.01536 9.8231,21.20175 1.6379,4.91177 3.3064,18.04134 3.3064,22.95272 0,12.67397 -3.523,34.88064 -7.4886,54.95053 -3.2063,16.22899 -6.7505,28.64434 -8.9477,35.40164 -8.1917,24.18075 -17.9504,60.49306 -55.6311,80.13992 -27.2728,13.31944 -60.8909,19.37898 -89.9629,19.64597 l -1.6535,0 c -58.9195,0 -122.4268,-27.22798 -154.1525,-105.81585 -3.8887,-10.004 -7.4402,-18.97745 -11.0873,-29.37168 -6.27,-17.87231 -10.0177,-35.08048 -10.0177,-51.64344 0,-78.5879 123.8339,-88.40701 157.0705,-88.40701 z m 22.6608,444.06341 c 15.119,10.2001 29.434,18.46554 43.2645,28.44773 34.4798,24.88533 65.9447,45.72523 99.3319,45.72523 23.674,0 56.2267,-11.80351 56.2267,-44.26312 0,-0.4964 0,-0.99562 -0.031,-1.49731 -0.8099,-26.31797 -22.7253,-54.45749 -51.7649,-54.45749 -7.3984,0 -11.8377,-1.36158 -19.2358,5.44791 -4.4389,2.72386 -8.8783,8.1715 -13.3169,9.53345 11.837,-23.15286 31.0729,-28.6005 51.7878,-28.6005 42.577,0 71.9191,32.97409 81.9822,68.07632 2.5268,8.81449 -10.0631,-35.10223 0,0 2.5268,8.81449 3.8383,17.40513 3.8383,25.10455 0,42.78753 -31.0728,97.3789 -87.3003,119.51057 -56.2268,22.13146 -79.9013,23.60686 -128.7297,23.60686 -11.3693,0 -23.4656,-0.4304 -36.0607,-1.3253 -89.0391,-6.3255 -187.2145,-35.85056 -241.0064,-100.47985 -39.9212,53.03434 -150.218,90.60385 -238.2774,101.50435 -17.2838,2.1396 -33.0659,3.2515 -46.418,3.2515 -57.7067,0 -168.6811,-17.7048 -196.7947,-95.90306 -4.439,-14.75445 -8.878,-29.50888 -8.878,-44.26311 0,-10.1197 1.3921,-20.70226 4.2118,-31.00651 9.5131,-34.76762 -2.8197,10.30425 0,0 9.5131,-34.76762 35.2768,-61.26674 78.6491,-61.26674 11.8374,0 32.5527,4.08603 45.8693,17.7052 -11.8373,-4.08578 -28.1134,-8.17118 -31.0728,-8.17118 -31.5894,0 -44.0558,31.28323 -45.6826,51.73239 -0.1245,1.58103 1.6268,-20.44916 0,0 -0.1245,1.58103 -0.1867,3.07178 -0.1867,4.44868 0,26.55816 16.2761,44.26311 41.4303,44.26311 30.5388,0 69.6499,-22.37444 112.4415,-48.65163 60.8747,-37.38199 -42.7916,26.27719 0,0 15.0909,-9.2671 30.6393,-16.83566 46.4308,-26.26289 47.9106,-28.60211 90.4268,-50.04505 133.2125,-50.04505 4.0936,0 25.9252,1.36162 38.2055,4.08607 9.5514,2.72352 20.4672,6.80924 31.3828,12.25723 10.9158,5.44763 28.654,21.7909 32.7475,21.7909 2.7291,0 17.7382,-13.61881 27.2896,-19.0668 16.3738,-10.89561 61.4016,-19.0674 81.8688,-19.0674 54.0691,0 93.8419,20.35373 134.577,47.83589 z"
       id="path5-2" />
  </g>
</svg>
