<?xml version="1.0" encoding="UTF-8" standalone="no"?>
<!-- Created with Inkscape (http://www.inkscape.org/) -->

<svg
   xmlns:dc="http://purl.org/dc/elements/1.1/"
   xmlns:cc="http://creativecommons.org/ns#"
   xmlns:rdf="http://www.w3.org/1999/02/22-rdf-syntax-ns#"
   xmlns:svg="http://www.w3.org/2000/svg"
   xmlns="http://www.w3.org/2000/svg"
   xmlns:sodipodi="http://sodipodi.sourceforge.net/DTD/sodipodi-0.dtd"
   xmlns:inkscape="http://www.inkscape.org/namespaces/inkscape"
   width="919.60602"
   height="693.58539"
   id="svg3391"
   version="1.1"
   inkscape:version="0.48.2 r9819"
   sodipodi:docname="New document 16">
  <defs
     id="defs3393" />
  <sodipodi:namedview
     id="base"
     pagecolor="#ffffff"
     bordercolor="#666666"
     borderopacity="1.0"
     inkscape:pageopacity="0.0"
     inkscape:pageshadow="2"
     inkscape:zoom="0.35"
     inkscape:cx="459.803"
     inkscape:cy="346.79269"
     inkscape:document-units="px"
     inkscape:current-layer="layer1"
     showgrid="false"
     fit-margin-top="0"
     fit-margin-left="0"
     fit-margin-right="0"
     fit-margin-bottom="0"
     inkscape:window-width="469"
     inkscape:window-height="455"
     inkscape:window-x="125"
     inkscape:window-y="125"
     inkscape:window-maximized="0" />
  <metadata
     id="metadata3396">
    <rdf:RDF>
      <cc:Work
         rdf:about="">
        <dc:format>image/svg+xml</dc:format>
        <dc:type
           rdf:resource="http://purl.org/dc/dcmitype/StillImage" />
        <dc:title></dc:title>
      </cc:Work>
    </rdf:RDF>
  </metadata>
  <g
     inkscape:label="Layer 1"
     inkscape:groupmode="layer"
     id="layer1"
     transform="translate(84.803,-185.56949)">
    <path
       inkscape:connector-curvature="0"
       d="M 834.803,879.15487 H -84.803 V 185.56949 h 919.606 v 693.58538 l 0,0 z M 24.014,814.99409 H 725.977 L 494.99,578.51728 451.254,622.53889 c -18.935,18.92548 -46.045,29.75843 -74.534,29.75843 -0.156,0 -0.322,0 -0.478,0 -28.6,-0.11953 -55.793,-11.18242 -74.627,-30.3838 l -44.463,-45.01476 -233.138,238.12293 0,0 z M -20.642,295.674 V 768.91257 L 212.065,531.24952 -20.642,295.674 l 0,0 z m 560.84,237.32279 230.444,235.88826 V 300.98931 l -230.444,232.00748 0,0 z M 24.161,249.74882 347.338,576.88043 c 6.998,7.1177 17.62,11.20077 29.189,11.22837 0.09,0 0.129,0 0.193,0 11.403,0 22.264,-4.02786 29.068,-10.86976 L 731.09,249.74882 H 24.161 l 0,0 z"
       id="path3-8" />
  </g>
</svg>
