<?xml version="1.0" encoding="UTF-8" standalone="no"?>
<!-- Created with Inkscape (http://www.inkscape.org/) -->

<svg
   xmlns:dc="http://purl.org/dc/elements/1.1/"
   xmlns:cc="http://creativecommons.org/ns#"
   xmlns:rdf="http://www.w3.org/1999/02/22-rdf-syntax-ns#"
   xmlns:svg="http://www.w3.org/2000/svg"
   xmlns="http://www.w3.org/2000/svg"
   xmlns:sodipodi="http://sodipodi.sourceforge.net/DTD/sodipodi-0.dtd"
   xmlns:inkscape="http://www.inkscape.org/namespaces/inkscape"
   width="896.09698"
   height="697.02893"
   id="svg3502"
   version="1.1"
   inkscape:version="0.48.2 r9819"
   sodipodi:docname="New document 22">
  <defs
     id="defs3504" />
  <sodipodi:namedview
     id="base"
     pagecolor="#ffffff"
     bordercolor="#666666"
     borderopacity="1.0"
     inkscape:pageopacity="0.0"
     inkscape:pageshadow="2"
     inkscape:zoom="0.35"
     inkscape:cx="448.0485"
     inkscape:cy="348.51448"
     inkscape:document-units="px"
     inkscape:current-layer="layer1"
     showgrid="false"
     fit-margin-top="0"
     fit-margin-left="0"
     fit-margin-right="0"
     fit-margin-bottom="0"
     inkscape:window-width="469"
     inkscape:window-height="455"
     inkscape:window-x="125"
     inkscape:window-y="125"
     inkscape:window-maximized="0" />
  <metadata
     id="metadata3507">
    <rdf:RDF>
      <cc:Work
         rdf:about="">
        <dc:format>image/svg+xml</dc:format>
        <dc:type
           rdf:resource="http://purl.org/dc/dcmitype/StillImage" />
        <dc:title></dc:title>
      </cc:Work>
    </rdf:RDF>
  </metadata>
  <g
     inkscape:label="Layer 1"
     inkscape:groupmode="layer"
     id="layer1"
     transform="translate(73.0485,-183.8477)">
    <path
       inkscape:connector-curvature="0"
       d="m 447.2495,341.78752 56.506,0 c 5.43,2.58071 53.297,36.20989 61.406,41.59524 l 0.18,-41.93576 -0.287,0 c 19.141,-2.32972 33.943,-18.63809 33.943,-38.37832 l 0,-80.48421 c 0,-21.39801 -17.338,-38.73677 -38.755,-38.73677 l -112.992,0 c -21.408,0 -38.738,17.33876 -38.738,38.73677 l 0,80.47522 c 0,21.37113 17.357,38.72783 38.738,38.72783 z m 226.407,-33.40526 c 34.365,0 62.223,27.85862 62.223,62.23164 0,34.3639 -27.858,62.23135 -62.223,62.23135 -34.364,0 -62.222,-27.85848 -62.222,-62.23135 0,-34.37302 27.858,-62.23164 62.222,-62.23164 z M 57.6055,706.61917 c 1.192,0 2.33,-0.21495 3.486,-0.36724 l 0,0.18802 1.425,0.1797 -4.901,0 -71.542,0 -21.381,-205.09068 -37.741,0 24.883,236.91895 0,5.52849 0,136.88225 37.339,0 0,-136.87309 124.463,0 0,136.89109 37.33,0 0,-136.89109 0,-37.63463 m 13.916,-148.46864 0,-0.0898 m -100.377,61.28157 c 0,0.11562 -0.108,0.15353 -0.108,0.24188 m 161.246,261.55151 0,-223.99738 298.685,0 0,13.29753 c -7.841,1.6128 -14.651,5.98549 -19.131,12.29393 l -0.09,0 -105.754,149.33779 0.09,0 c -3.61,5.06269 -5.788,11.2364 -5.788,17.94798 0,17.18615 13.943,31.12015 31.129,31.12015 10.484,0 19.686,-5.2151 25.332,-13.1631 l 0.09,0 74.158,-104.72273 0,117.84083 49.785,0 0,-155.63675 24.883,-3.79013 0,22.5448 0,136.89108 37.34,0 0,-136.89986 124.463,0 0,136.89086 37.329,0 0,-136.89086 0,-5.52905 24.884,-236.92747 -37.742,0 -21.38,205.11742 -52.752,0 c 17.366,0 32.205,-10.23302 39.203,-24.89268 2.509,-5.25081 4.006,-11.05726 4.203,-17.22235 l 0,-157.01689 c 0,-30.93201 -25.063,-56.00382 -56.004,-56.00382 -23.593,0 -43.665,14.62365 -51.927,35.27807 l -25.009,45.61843 -84.848,0 c -13.754,0 -24.884,11.13814 -24.884,24.89257 0,13.73677 11.13,24.8837 24.884,24.8837 l 74.678,0 31.102,0 13.369,0 44.186,-80.65445 28.413,0 -57.832,105.53795 -28.136,0 0,12.45473 c 0,17.11468 -15.493,21.99824 -15.493,21.99824 l -52.93,14.82113 0,-49.27458 -49.785,0 -298.694,0 -49.785,0 m 0,273.81841 49.785,0 0,-273.81841 -49.785,0 z M 46.4585,308.31935 c 34.363,0 62.222,27.85862 62.222,62.23148 0,34.37303 -27.859,62.23146 -62.222,62.23146 -34.364,0 -62.223,-27.85843 -62.223,-62.23146 0,-34.37286 27.859,-62.23148 62.223,-62.23148 z m 527.691,298.6934 -49.786,0 -298.694,0 -49.784,0 0,49.27459 -52.931,-14.82105 c 0,0 -15.493,-4.88365 -15.493,-21.99833 l 0,-12.45521 -28.136,0 -57.831,-105.53832 28.413,0 44.185,80.66352 13.369,0 31.102,0 74.678,0 c 13.755,0 24.884,-11.14694 24.884,-24.88371 0,-13.75443 -11.129,-24.89248 -24.884,-24.89248 l -84.848,0 -25.009,-45.61851 c -8.262,-20.65433 -28.333,-35.28696 -51.926,-35.28696 -30.941,0 -56.004,25.08069 -56.004,56.00392 l 0,157.01695 c 0.188,6.16484 1.685,11.97149 4.203,17.2223 6.998,14.66863 21.846,24.89266 39.203,24.89266 l -52.752,0 -21.38,-205.11769 -37.742,0 24.883,236.92782 0,5.52888 0,136.89093 37.33,0 0,-136.89093 124.463,0 0,136.89093 37.339,0 0,-136.89093 0,-22.54509 24.884,3.79929 0,155.63673 49.784,0 0,-117.84091 74.158,104.72261 0.09,0 c 5.646,7.9481 14.848,13.1634 25.332,13.1634 17.186,0 31.129,-13.9341 31.129,-31.12011 0,-6.71179 -2.169,-12.88549 -5.788,-17.9481 l 0.09,0 -105.753,-149.33788 -0.09,0 c -4.48,-6.30824 -11.29,-10.68093 -19.131,-12.29375 l 0,-13.2976 298.685,0 0,223.99744 49.784,-273.8187 z m 0,0 -49.786,0 m 0,273.81831 49.786,0 m -242.071,-560.42392 0,-50.00016 c 0,-13.28862 -19.373,-24.06829 -43.289,-24.06829 l -126.264,0 c -23.943,0 -43.307,10.7707 -43.307,24.06829 l 0,50.00016 c 0,12.25823 16.542,22.39272 37.93,23.83539 l -0.322,0 0.187,26.05748 c 9.06,-3.34234 62.546,-24.23856 68.621,-25.83356 l 63.146,0 c 23.907,0 43.298,-10.77967 43.298,-24.05931 z"
       id="path3"
       sodipodi:nodetypes="cccccssssssccsssssccccccccccccccccccccccccccccccssccccccccccccccccccccccssccssscccccccscccccccccccsssssccccccscccccccsssccssccccccccccccccccccccccssccccccccccccccssssssccccss" />
  </g>
</svg>
