<?xml version="1.0" encoding="UTF-8" standalone="no"?>
<!-- Created with Inkscape (http://www.inkscape.org/) -->

<svg
   xmlns:dc="http://purl.org/dc/elements/1.1/"
   xmlns:cc="http://creativecommons.org/ns#"
   xmlns:rdf="http://www.w3.org/1999/02/22-rdf-syntax-ns#"
   xmlns:svg="http://www.w3.org/2000/svg"
   xmlns="http://www.w3.org/2000/svg"
   xmlns:sodipodi="http://sodipodi.sourceforge.net/DTD/sodipodi-0.dtd"
   xmlns:inkscape="http://www.inkscape.org/namespaces/inkscape"
   width="826.36365"
   height="585.04364"
   id="svg3345"
   version="1.1"
   inkscape:version="0.48.2 r9819"
   sodipodi:docname="community.svg">
  <defs
     id="defs3347" />
  <sodipodi:namedview
     id="base"
     pagecolor="#ffffff"
     bordercolor="#666666"
     borderopacity="1.0"
     inkscape:pageopacity="0.0"
     inkscape:pageshadow="2"
     inkscape:zoom="0.36936298"
     inkscape:cx="591.02288"
     inkscape:cy="118.28966"
     inkscape:document-units="px"
     inkscape:current-layer="layer1"
     showgrid="false"
     fit-margin-top="0"
     fit-margin-left="0"
     fit-margin-right="0"
     fit-margin-bottom="0"
     inkscape:window-width="1440"
     inkscape:window-height="838"
     inkscape:window-x="-8"
     inkscape:window-y="-8"
     inkscape:window-maximized="1"
     showguides="true"
     inkscape:guide-bbox="true" />
  <metadata
     id="metadata3350">
    <rdf:RDF>
      <cc:Work
         rdf:about="">
        <dc:format>image/svg+xml</dc:format>
        <dc:type
           rdf:resource="http://purl.org/dc/dcmitype/StillImage" />
        <dc:title></dc:title>
      </cc:Work>
    </rdf:RDF>
  </metadata>
  <g
     inkscape:label="Layer 1"
     inkscape:groupmode="layer"
     id="layer1"
     transform="translate(38.081744,-243.3335)">
    <path
       d="m 375.34654,243.3335 c -23.94662,0 -43.43891,19.49231 -43.43891,43.43889 0,23.9675 19.49229,43.4778 43.43891,43.4778 23.94657,0 43.49075,-19.5103 43.49075,-43.4778 0,-23.94658 -19.54421,-43.43889 -43.49075,-43.43889 z m -182.39409,62.92089 c -28.49591,0 -51.70119,23.19233 -51.70119,51.68826 0,28.52082 23.20528,51.74014 51.70119,51.74014 28.49591,0 51.74016,-23.21932 51.74016,-51.74014 0,-28.49593 -23.24425,-51.68826 -51.74016,-51.68826 z m 364.29525,0 c -28.49591,0 -51.74017,23.19233 -51.74017,51.68826 0,28.52082 23.24421,51.74014 51.74017,51.74014 28.49595,0 51.68824,-23.21932 51.68824,-51.74014 0,-28.49593 -23.19232,-51.68826 -51.68824,-51.68826 z m -181.90116,35.5527 c -37.59943,0 -68.13513,30.56956 -68.13513,68.14809 l 0,120.89993 136.28317,0 0,-120.89993 c 0,-37.57853 -30.59397,-68.14809 -68.14804,-68.14809 z M 61.221972,371.00415 c -34.898709,0 -63.3099897,28.39834 -63.3099897,63.29704 0,34.92918 28.4112807,63.37486 63.3099897,63.37486 34.898749,0 63.361908,-28.44568 63.361908,-63.37486 0,-34.8987 -28.463159,-63.29704 -63.361908,-63.29704 z m 627.756198,0 c -34.89874,0 -63.3749,28.39834 -63.3749,63.29704 0,34.92918 28.47619,63.37486 63.3749,63.37486 34.89867,0 63.29705,-28.44568 63.29705,-63.37486 0,-34.8987 -28.39838,-63.29704 -63.29705,-63.29704 z m -496.02572,52.44056 c -44.74246,0 -81.09285,36.36224 -81.09285,81.07987 l 0,7.69163 c 38.03393,13.92589 65.26859,50.50132 65.26859,93.31125 l 0,42.88116 19.98787,0 76.91629,-86.99453 0,-56.88951 c 0,-44.71763 -36.39136,-81.07987 -81.0799,-81.07987 z m 364.29525,0 c -44.68854,0 -81.0799,36.36224 -81.0799,81.07987 l 0,56.88951 76.91628,86.99453 19.98788,0 0,-42.88116 c 0,-42.80993 27.23466,-79.38536 65.26859,-93.31125 l 0,-7.69163 c 0,-44.71763 -36.35043,-81.07987 -81.09285,-81.07987 z M 61.221972,514.51203 c -54.7957697,0 -99.303716,44.55139 -99.303716,99.31668 l 0,176.207 109.991578,0 88.615856,-100.2376 0,-75.9694 c 0,-54.76529 -44.57407,-99.31668 -99.303718,-99.31668 z m 627.756198,0 c -54.72964,0 -99.30371,44.55139 -99.30371,99.31668 l 0,75.9694 88.61586,100.2376 109.99157,0 0,-176.207 c 0,-54.76529 -44.50798,-99.31668 -99.30372,-99.31668 z m -382.01318,26.33053 c -0.40544,0 0.34657,1.70476 -0.72636,2.9184 L 57.201096,825.45873 c -1.072979,1.21365 0.320884,2.91839 0.726359,2.91839 l 633.956165,0 c 0.40547,0 1.79929,-1.70474 0.72635,-2.91839 L 443.57244,543.76096 c -1.07298,-1.21364 -0.32088,-2.9184 -0.72635,-2.9184 l -135.8811,0 z"
       id="path15"
       inkscape:connector-curvature="0" />
  </g>
</svg>
