<?xml version="1.0" encoding="UTF-8" standalone="no"?>
<!-- Created with Inkscape (http://www.inkscape.org/) -->

<svg
   xmlns:dc="http://purl.org/dc/elements/1.1/"
   xmlns:cc="http://creativecommons.org/ns#"
   xmlns:rdf="http://www.w3.org/1999/02/22-rdf-syntax-ns#"
   xmlns:svg="http://www.w3.org/2000/svg"
   xmlns="http://www.w3.org/2000/svg"
   xmlns:sodipodi="http://sodipodi.sourceforge.net/DTD/sodipodi-0.dtd"
   xmlns:inkscape="http://www.inkscape.org/namespaces/inkscape"
   width="998.62836"
   height="678.84509"
   id="svg3472"
   version="1.1"
   inkscape:version="0.48.2 r9819"
   sodipodi:docname="printer.svg">
  <defs
     id="defs3474" />
  <sodipodi:namedview
     id="base"
     pagecolor="#ffffff"
     bordercolor="#666666"
     borderopacity="1.0"
     inkscape:pageopacity="0.0"
     inkscape:pageshadow="2"
     inkscape:zoom="0.35"
     inkscape:cx="499.20555"
     inkscape:cy="339.38552"
     inkscape:document-units="px"
     inkscape:current-layer="layer1"
     showgrid="false"
     fit-margin-top="0"
     fit-margin-left="0"
     fit-margin-right="0"
     fit-margin-bottom="0"
     inkscape:window-width="936"
     inkscape:window-height="709"
     inkscape:window-x="50"
     inkscape:window-y="50"
     inkscape:window-maximized="0" />
  <metadata
     id="metadata3477">
    <rdf:RDF>
      <cc:Work
         rdf:about="">
        <dc:format>image/svg+xml</dc:format>
        <dc:type
           rdf:resource="http://purl.org/dc/dcmitype/StillImage" />
        <dc:title />
      </cc:Work>
    </rdf:RDF>
  </metadata>
  <g
     inkscape:label="Layer 1"
     inkscape:groupmode="layer"
     id="layer1"
     transform="translate(124.20555,-192.9026)">
    <path
       style="stroke:#000000;stroke-width:9.87518787;stroke-miterlimit:10"
       d="M 255.96875 5 L 282.375 225.59375 L 43.40625 225.6875 C 16.36799 225.6875 6.52052 238.32722 5.375 252.84375 L 993.03125 252.84375 C 991.14509 238.64324 980.36855 225.40625 951.375 225.40625 L 716.5625 225.46875 L 744.625 5 L 255.96875 5 z M 273.875 20.90625 L 726.5625 20.90625 L 700.5 225.5 L 298.375 225.625 L 273.875 20.90625 z M 5.375 274.8125 C 5.59225 277.49855 6.00448 280.16595 6.65625 282.8125 L 78.75 538.625 C 85.613255 566.83841 132.67582 582.84375 161.71875 582.84375 L 198.84375 582.84375 L 253.625 582.84375 L 222.375 678.84375 L 776.25 678.84375 L 745.03125 582.84375 L 810.8125 582.84375 L 847.34375 582.84375 C 900.36363 582.84375 914.88405 560.02848 925.6875 528.0625 L 992.25 282.8125 C 992.84251 280.23507 993.15125 277.54792 993.25 274.8125 L 5.375 274.8125 z M 315.125 503.625 L 684.03125 503.625 L 699.21875 550.25 L 699.28125 550.4375 L 729 641.71875 L 270.15625 641.71875 L 289.34375 582.84375 L 315.125 503.625 z M 699.21875 550.25 L 690.71875 528.84375 L 690.6875 528.84375 L 699.21875 550.25 z "
       transform="translate(-124.20555,192.9026)"
       id="path3-1" />
  </g>
</svg>
