<?xml version="1.0" encoding="UTF-8" standalone="no"?>
<!-- Created with Inkscape (http://www.inkscape.org/) -->

<svg
   xmlns:dc="http://purl.org/dc/elements/1.1/"
   xmlns:cc="http://creativecommons.org/ns#"
   xmlns:rdf="http://www.w3.org/1999/02/22-rdf-syntax-ns#"
   xmlns:svg="http://www.w3.org/2000/svg"
   xmlns="http://www.w3.org/2000/svg"
   xmlns:sodipodi="http://sodipodi.sourceforge.net/DTD/sodipodi-0.dtd"
   xmlns:inkscape="http://www.inkscape.org/namespaces/inkscape"
   width="984.427"
   height="664.25079"
   id="svg3257"
   version="1.1"
   inkscape:version="0.48.2 r9819"
   sodipodi:docname="New document 8">
  <defs
     id="defs3259" />
  <sodipodi:namedview
     id="base"
     pagecolor="#ffffff"
     bordercolor="#666666"
     borderopacity="1.0"
     inkscape:pageopacity="0.0"
     inkscape:pageshadow="2"
     inkscape:zoom="0.35"
     inkscape:cx="444.35636"
     inkscape:cy="420.69681"
     inkscape:document-units="px"
     inkscape:current-layer="layer1"
     showgrid="false"
     fit-margin-top="0"
     fit-margin-left="0"
     fit-margin-right="0"
     fit-margin-bottom="0"
     inkscape:window-width="909"
     inkscape:window-height="557"
     inkscape:window-x="150"
     inkscape:window-y="150"
     inkscape:window-maximized="0" />
  <metadata
     id="metadata3262">
    <rdf:RDF>
      <cc:Work
         rdf:about="">
        <dc:format>image/svg+xml</dc:format>
        <dc:type
           rdf:resource="http://purl.org/dc/dcmitype/StillImage" />
        <dc:title></dc:title>
      </cc:Work>
    </rdf:RDF>
  </metadata>
  <g
     inkscape:label="Layer 1"
     inkscape:groupmode="layer"
     id="layer1"
     transform="translate(69.356357,54.048917)">
    <path
       inkscape:connector-curvature="0"
       d="m 398.03044,396.45543 c 2.6303,6.04035 6.2514,11.47212 10.2885,16.64395 4.4928,6.37986 10.6555,10.37406 17.7419,13.34081 8.0253,3.55689 16.0934,7.05266 24.2838,10.21513 8.5605,2.96663 17.6104,3.73117 26.596,4.15632 8.0314,0.88699 15.9802,2.11037 23.9168,3.57225 7.3463,1.52918 14.5917,1.8962 22.0083,1.00933 9.3374,-0.0123 17.7052,-3.96071 26.3666,-6.95178 9.0529,-3.73437 18.0814,-7.38001 27.0089,-11.43244 10.475,-4.0615 21.155,-7.28508 32.1622,-9.49636 10.943,-1.83508 22.0818,-1.86559 33.1471,-2.07965 6.4685,0.30579 13.0075,-0.58119 19.4362,0.42814 0.7341,0 8.3373,1.83508 9.1172,1.98792 7.857,2.23271 15.552,5.47463 22.4916,9.80225 4.5846,3.02786 8.5054,6.82335 12.7077,10.30378 1.1316,0.6423 2.4468,1.5904 3.8169,1.62101 3.303,0.0154 8.9428,-3.02787 11.729,-4.64877 0.9482,-0.51997 1.8962,-1.00933 2.8138,-1.52928 -11.0624,6.28503 -22.0329,12.73828 -33.193,18.85212 -0.8564,0.45875 1.4986,-1.254 2.2632,-1.89619 2.4773,-2.17159 4.7742,-4.46841 7.0497,-6.83562 4.7313,-5.65809 8.484,-12.01043 12.1816,-18.36267 3.3215,-5.42877 7.2423,-10.466 11.5609,-15.13312 0,0 38.4441,-16.20952 38.4441,-16.20952 l 0,0 c -4.0187,4.78635 -8.5299,9.13541 -12.0042,14.38979 -3.6486,6.58786 -7.591,12.95236 -11.8788,19.15185 -12.6803,15.85478 -31.6547,24.80984 -49.7911,33.51712 -6.3676,2.41617 -12.8606,4.21146 -18.5461,-0.76464 -3.8812,-3.4866 -7.7471,-6.99454 -12.1512,-9.82668 -6.6765,-3.93 -13.8485,-7.18109 -21.4455,-8.82962 -9.2395,-1.8656 -18.4881,-2.14089 -27.9081,-1.74326 -10.9032,0 -21.8677,0.42814 -32.5874,2.63023 -10.8941,2.44668 -21.5037,5.91803 -31.7739,10.30688 -8.9214,3.96976 -17.9957,7.52975 -27.1006,11.05305 -8.9153,3.1471 -17.7388,6.28813 -27.3269,6.39521 -7.6124,0.45865 -15.0963,-0.51995 -22.5742,-1.98803 -7.7989,-1.37633 -15.656,-2.47727 -23.5406,-3.22358 -9.2853,-0.6423 -18.5645,-1.8962 -27.3086,-5.26356 -8.2271,-3.31829 -16.4695,-6.61227 -24.5468,-10.28233 -7.4411,-3.60287 -13.9739,-8.19958 -18.8337,-15.02603 -4.2818,-5.4837 -8.0436,-11.26414 -11.2856,-17.42992 0,0 36.6643,-20.47295 36.6643,-20.47295 z m -170.7971,21.80041 c -14.4419,17.2372 -33.193,24.27153 -53.4703,35.79261 -6.1321,3.67625 -12.6251,6.23 -19.6228,7.60624 -6.4563,0.73404 -12.8453,0.85636 -19.2619,1.95743 -6.7988,0.97871 -13.6588,1.40694 -20.5189,1.621 -8.3861,-1.13165 -16.512297,-4.19918 -24.072797,-7.93357 -7.5083,-3.53246 -14.2521,-8.44426 -21.5556,-12.36817 -3.9638,-2.23271 -7.9427,-4.46842 -11.9279,-6.67659 0,0 34.5724,-22.56496 34.5724,-22.56496 l 0,0 c 4.0248,2.17149 8.0467,4.35823 12.013397,6.6368 7.1506,4.04017 14.0565,8.54517 21.4487,12.13885 7.2729,3.29995 15.0474,6.24217 23.1461,6.13209 6.7682,-0.30589 13.5273,-0.85636 20.2161,-1.98792 6.3523,-0.85638 12.8208,-0.70353 19.0753,-2.26332 6.6765,-1.89621 12.7933,-4.98518 18.9132,-8.21484 -10.6555,6.24216 -21.3324,12.45082 -31.9665,18.72969 -1.1622,0.70342 2.4467,-1.19278 3.5569,-1.95732 4.1472,-2.78318 7.2118,-6.89983 10.9094,-10.20297 0,0 38.5452,-16.46956 38.5452,-16.46956 z M 132.01574,210.1124 c 1.3457,6.59394 5.0586,12.35291 8.536,18.00792 3.2909,4.04934 6.5695,8.17207 10.3741,11.75349 2.9973,3.67625 6.4013,6.93034 9.9858,10.02241 4.5601,2.78318 9.4841,5.02506 14.3959,7.12925 5.6642,2.07965 11.2886,4.27258 17.0721,6.01892 6.2575,1.74324 12.7444,2.14088 19.2007,2.38556 7.7103,0.30589 15.4236,0.30589 23.1339,0 6.6214,0.6423 12.671,-1.07045 18.8582,-3.08599 -8.637,5.59996 17.017,-9.481 8.3066,-4.4346 -69.3251,40.14774 -14.9159,9.06203 8.4076,-4.83543 -62.5109,36.51747 -31.5812,18.55849 -17.8092,9.32207 15.9007,-9.78689 2.6303,-1.65152 42.0165,-24.28996 1.0399,-0.6117 4.2115,-2.41618 3.1624,-1.80437 -10.8145,6.22072 -43.145,25.07584 -32.4498,18.65012 5.3859,-3.23575 88.6329,-51.17946 5.9884,-3.55381 18.0477,-11.26114 32.8566,-23.77309 53.3632,-25.51336 6.4992,-0.97861 11.4446,0.30591 17.4819,2.41617 4.9424,2.20199 8.9428,5.64284 12.9524,9.16912 4.6794,3.79858 9.1875,7.7867 13.9036,11.5486 5.1809,3.72819 10.787,6.58475 16.8396,8.58186 8.7776,2.41616 17.3076,5.63665 26.1219,7.92439 10.0163,3.02777 20.1397,5.48989 30.4955,7.00073 10.4842,0.76454 20.8675,2.38556 31.3365,3.31841 10.4781,0.79515 20.9929,0.88687 31.4955,0.9786 7.9122,0 16.3656,-0.3364 23.2776,-4.56312 13.1818,-8.74708 1.0705,-0.64231 -30.4832,17.28925 -1.0399,0.58108 2.0186,-1.28461 3.0279,-1.92681 2.0185,-1.25401 4.0064,-2.59974 6.0709,-3.81085 13.0808,-7.63684 26.2198,-15.17579 39.3312,-22.76378 7.958,-4.16251 15.5306,-9.12934 23.7088,-12.84527 5.132,-2.69145 10.3466,-5.1443 15.4939,-7.80814 5.7499,-1.77386 10.8635,-4.98219 16.5125,-7.03742 5.2696,-2.90552 10.6646,-5.49907 16.2462,-7.7531 0.9176,-0.45875 1.8351,-0.94811 2.7526,-1.40684 -1.988,0.79514 7.4044,-4.25424 5.5572,-3.18381 -11.0378,6.37368 -22.0848,12.72911 -33.1747,19.01415 -0.7951,0.45875 1.5292,-1.07044 2.3244,-1.52918 12.674,-7.35857 25.3971,-14.62541 38.0957,-21.93802 0.7951,-0.45875 3.1746,-1.80447 2.3855,-1.34572 -75.396,43.44481 -10.3497,5.79877 5.3889,-2.90553 2.722,-1.49857 7.2209,-2.59962 10.2579,-3.96977 6.1199,-3.40715 13.2858,-3.41322 19.7451,-5.57853 5.2055,-1.40695 10.0867,-3.48052 15.4512,-4.28485 7.6307,-0.91758 14.9127,-3.53246 22.4395,-5.08308 7.4657,-1.71274 14.7966,-3.93618 22.299,-5.50515 6.4899,-1.28461 13.1053,-1.62101 19.7053,-1.77386 6.1443,0 12.2887,-0.0123 18.433,0 6.698,0.0104 13.396,0 20.0969,0.0268 7.0772,0.36701 10.7014,4.46531 13.6436,10.38024 2.1409,4.80173 4.3185,9.57284 6.2911,14.45413 0.3059,0.88687 0.6117,1.80447 0.9176,2.69135 0,0 -36.6001,20.15797 -36.6001,20.15797 l 0,0 c -0.3058,-0.82576 -0.5505,-1.65153 -0.7952,-2.47729 -1.9268,-4.76802 -4.0891,-9.42297 -6.1381,-14.13595 -2.7221,-5.27881 -4.7437,-6.63681 -11.0073,-6.61237 -6.701,-0.0186 -13.4021,0 -20.1061,-0.0268 -6.1351,-0.0103 -12.2734,0 -18.4085,0.30591 -6.4105,0.30579 -12.827,0.79515 -19.0907,2.29371 -7.435,1.80447 -14.8241,3.7955 -22.2928,5.46847 -7.5389,1.74334 -14.9465,4.04634 -22.6231,5.16564 -5.1565,1.37633 -10.1508,3.30623 -15.3654,4.49592 -6.5939,1.28451 -13.0655,2.93602 -19.1518,5.8905 -2.4161,0.97871 -4.8384,1.8657 -7.2209,2.87492 -1.0093,0.42813 -3.9514,1.95741 -2.9973,1.40684 68.6094,-40.7381 16.2463,-8.41066 -7.8111,4.40718 73.1756,-42.54257 9.0468,-4.18692 -15.705,8.70729 -5.4807,2.50801 -10.8207,5.28799 -16.335,7.71951 -5.4379,2.47728 -10.8788,4.93312 -16.3656,7.29425 -5.1809,2.41617 -10.1141,5.32169 -15.3349,7.66447 -7.8815,4.1319 -15.6346,8.52075 -23.3785,12.90948 10.5179,-6.11374 20.996,-12.28871 31.5476,-18.34123 1.0704,-0.6117 -2.0798,1.34572 -3.0952,2.01853 -7.5603,5.07392 1.9269,-1.00932 -5.9272,3.57834 -12.7811,7.47782 -25.4766,15.10251 -38.2638,22.56805 -0.8869,0.51997 -1.835,0.9175 -2.7526,1.37623 -7.7194,2.53851 -15.7783,3.05847 -23.8739,2.72207 -10.6005,0 -21.2163,-0.30589 -31.78,-1.22338 -10.4904,-1.10106 -20.9502,-2.47739 -31.4405,-3.56 -10.4292,-1.80447 -20.6841,-4.32153 -30.8411,-7.30353 -8.8969,-2.5385 -17.6837,-5.46845 -26.5807,-8.01304 -6.2911,-2.44666 -12.3009,-5.50513 -17.6592,-9.66764 -4.762,-3.79241 -9.2579,-7.89679 -14.0687,-11.62806 -3.6946,-3.09516 -7.3922,-6.20857 -12.0074,-7.86318 -5.4225,-1.68214 -10.8145,-1.74336 -16.4328,-0.88699 -16.2524,2.59962 -42.1022,20.86149 18.9315,-14.41733 -107.8702,62.61182 -2.1102,1.19279 -6.0373,3.53248 -12.8331,7.58181 -25.7579,15.0015 -38.6553,22.47014 -1.0398,0.61169 -4.2267,2.35494 -3.1807,1.74325 10.7595,-6.28195 21.5312,-12.53947 32.3213,-18.76947 1.101,-0.6422 -2.1715,1.31511 -3.2389,1.98804 -7.1781,4.07686 0.6423,-0.5812 -6.1198,4.0952 -14.8517,10.24873 -35.0831,15.12074 -47.1944,27.79791 -0.9482,0.51986 -3.7986,2.14088 -2.8444,1.5904 10.94,-6.35843 43.9189,-25.14933 32.8535,-19.01116 -14.3623,7.96717 -30.6147,19.96225 -47.3259,25.99963 -6.3737,1.80447 -12.83,2.35494 -19.4545,1.98792 -7.7776,-0.0247 -15.5612,0 -23.3357,-0.30579 -6.7041,-0.39762 -13.3898,-1.22339 -19.8216,-3.2542 -5.8752,-1.9268 -11.6985,-3.97596 -17.4024,-6.36151 -5.1963,-2.38555 -10.6066,-4.56622 -15.1514,-8.09868 -3.6578,-3.14402 -7.0129,-6.60919 -10.1723,-10.25482 -3.8505,-3.99739 -7.4747,-8.25461 -10.7167,-12.75663 -3.6089,-6.13219 -7.260597,-12.31622 -9.557497,-19.08764 0,0 37.055797,-19.80929 37.055797,-19.80929 z M 60.825043,133.51749 c -10.9889,6.28813 -21.9625,12.60677 -32.9698,18.86738 -1.101,0.61159 2.1409,-1.31522 3.2205,-1.95742 12.9616,-7.43196 25.8743,-14.94646 38.9245,-22.2133 10.94,-6.09231 -43.3224,25.11882 -32.5844,18.68083 2.8444,-1.71273 91.064297,-52.500767 5.548,-3.24502 14.1605,-9.29146 28.9173,-17.00169 43.8118,-25.50717 2.6608,-1.49858 5.3553,-2.56902 7.903,-4.2359 13.380497,-7.20562 7.444097,-4.03707 -31.0644,17.96825 -0.8258,0.48935 1.6516,-1.00932 2.4468,-1.52928 2.569,-1.68214 5.1534,-3.37643 7.7102,-5.09527 4.8873,-3.77106 9.4689,-7.92738 13.9097,-12.20923 4.4653,-3.62111 8.6461,-7.51762 12.762797,-11.51799 3.9086,-3.367257 7.4074,-7.153577 11.1601,-10.679957 4.5845,-4.14108 7.2301,-9.64931 9.8634,-15.11777 2.9972,-5.34302 4.6457,-11.22126 6.7988,-16.90687 1.0093,-2.50789 1.5293,-5.26356 3.1288,-7.50842 1.0399,-1.46808 3.6487,-3.95154 5.1534,-4.85068 12.8729,-7.70415 25.9231,-15.10859 38.8847,-22.65979 7.6124,-2.56901 15.6652,-4.4714 23.7272,-3.81991 6.1382,1.34572 10.8359,4.50808 14.7354,9.32506 4.0035,4.24505 6.7377,9.42297 9.9215,14.26138 3.19,5.97925 7.5635,11.13571 11.5884,16.53996 3.9942,5.43176 7.9519,10.84507 12.1572,16.10553 4.2909,5.73149 9.9092,10.08065 16.2218,13.35009 6.5909,3.41312 13.7139,4.59672 20.8614,6.15353 9.2303,1.98793 18.6808,2.47728 28.0855,2.81368 8.429,0.30581 16.8641,0.30581 25.2961,0.30581 8.5513,-0.94811 17.0201,-2.17149 25.3573,-4.3031 9.5667,-2.47739 18.7297,-6.11683 28.2689,-8.74099 8.8511,-2.5385 17.0293,-6.73461 25.7336,-9.64322 7.3523,-2.56901 14.5855,-5.39497 21.8401,-8.22401 6.6367,-2.32443 12.8851,-5.39198 19.7175,-7.18119 5.6918,-2.47729 11.8575,-3.54474 17.8306,-5.184 5.6152,-2.66085 11.6098,-3.94226 17.7572,-4.46531 7.7806,-0.0104 15.4266,-1.46807 23.1308,-2.35495 6.759,-0.79515 13.564,-0.82576 20.3568,-0.91759 6.6092,0.30589 12.0287,3.05847 17.4635,6.52673 4.973,2.56901 8.9428,6.60619 13.3041,10.03157 3.4774,3.23883 6.8478,6.57868 10.0867,10.0591 3.3795,4.41336 6.7805,8.49632 11.4262,11.61899 8.7593,4.01254 18.7603,3.88412 28.2139,4.25114 10.2885,0.3059 20.58,0 30.8685,0 8.9184,0 17.8337,0 26.752,0 10.6738,0.55047 21.2376,-0.30579 31.8289,-1.46806 1.3763,-0.30579 2.7831,-0.51997 4.1503,-0.91749 2.9972,-0.85638 4.3765,-1.65153 7.0711,-3.11959 1.1927,-0.6423 4.664,-2.66085 3.4988,-1.98793 -33.1472,18.989617 -42.0043,25.225817 -28.7491,16.0872 4.8415,-3.78323 9.4719,-7.86319 13.9372,-12.08681 3.8995,-4.42554 7.854,-8.79603 12.0776,-12.91875 4.2787,-4.34596 8.1324,-9.04678 11.8667,-13.85768 13.8944,-15.04128 32.8382,-27.44007 53.1338,-31.12858 1.1929,-0.3058 2.4162,-0.3058 3.6089,-0.45874 0,0 -33.2327,25.00257 -33.2327,25.00257 l 0,0 c -1.1316,0.30579 -2.2632,0.48934 -3.4131,0.73403 -13.8119,4.52643 -31.2356,17.10258 26.2839,-16.57047 3.7588,-2.2021 -11.8604,6.64587 -8.1139,6.025 -3.7742,4.79255 -7.276,9.76557 -11.5394,14.15441 -3.9118,4.44388 -8.7012,8.06498 -12.1664,12.9371 -4.0523,4.81697 -9.2212,8.62772 -13.9005,12.78724 -14.3929,12.31921 -3.0707,2.93603 -42.1205,25.265487 -4.7803,2.72195 -10.1295,4.13499 -15.5765,4.68855 -10.6647,0.97871 -21.3233,1.25389 -32.0338,1.10105 -8.9306,0 -17.8611,0 -26.7918,0 -10.2334,0 -20.4699,0 -30.6942,-0.45874 -10.212,-0.48936 -21.0419,-0.45885 -30.1009,-5.82631 -4.7008,-3.47743 -8.4443,-7.62766 -12.041,-12.203057 -3.1807,-3.28778 -6.3768,-6.55414 -9.7716,-9.61869 -4.1013,-3.45909 -8.1354,-7.0803 -12.9187,-9.59118 -5.0678,-2.90552 -10.05,-4.99136 -16.0506,-4.67021 -6.6918,0 -13.3867,0.39752 -20.0357,1.19278 -7.7286,0.91749 -15.4419,1.8962 -23.2042,2.44668 -6.0005,1.03992 -11.6861,2.96663 -17.4329,4.95157 -5.9394,1.62101 -11.9523,2.96675 -17.7174,5.19328 -6.6093,2.17138 -12.8759,5.20232 -19.4607,7.45328 -7.2026,2.87491 -14.5489,5.33384 -21.8218,8.028397 -8.4993,3.20822 -16.8151,6.90579 -25.6264,9.25167 -9.5148,2.90541 -18.8062,6.56331 -28.5442,8.68895 -8.5727,1.86559 -17.2709,3.30922 -26.0516,3.62418 -8.4259,-0.0217 -16.8549,0 -25.2748,-0.42813 -9.5697,-0.48935 -19.1609,-1.25399 -28.5472,-3.2848 -7.5543,-1.43746 -14.873,-3.35498 -21.6535,-7.1444 -6.5389,-3.86888 -12.6558,-8.52384 -17.2648,-14.637567 -4.1564,-5.34611 -8.0528,-10.85734 -12.1174,-16.27076 -4.0585,-5.46845 -8.5299,-10.64636 -11.778,-16.67755 -3.1501,-4.6733 -5.8691,-9.67075 -9.741,-13.82098 -3.3459,-3.77097 -7.5666,-6.10766 -12.671,-6.45634 -7.7134,0.3364 -15.4053,1.8962 -22.2806,5.51741 10.6739,-6.2667 21.3508,-12.5303 32.0247,-18.797 -2.1715,1.49858 -5.6551,3.10423 -7.2332,5.32159 -0.7034,0.97871 -1.4069,3.70077 -1.7433,4.80481 -2.2326,5.76816 -3.9025,11.74742 -6.8661,17.21886 -2.4773,5.69477 -4.9057,11.69237 -9.0957,16.34723 -3.4744,3.89639 -7.484,7.28208 -11.1296,11.01337 -4.5112,3.59358 -8.0681,8.25772 -12.7842,11.63115 -4.9699,3.627177 -8.9703,8.652247 -13.7935,12.530297 -15.677397,11.73206 -33.697497,20.02346 -50.316997,30.24159 -2.2632,1.13166 -2.9054,1.43746 -5.2115,2.63024 -0.9175,0.48935 -3.6395,1.95741 -2.7526,1.43746 58.877497,-34.52645 39.4138,-23.89235 27.5747,-15.62237 -12.7903,7.42587 -25.6326,14.75991 -38.3709,22.27133 -10.8727,6.41047 43.7506,-25.18603 32.7679,-18.96829 -12.931,7.32498 -25.6387,15.04747 -38.6217,22.28359 -10.8543,6.04656 21.4946,-12.48442 32.2418,-18.7266 1.0705,-0.61169 -2.1103,1.22339 -3.1624,1.83499 -12.8576,7.4473 -25.7151,14.89762 -38.5758,22.34791 0,0 32.7129,-26.16783 32.7129,-26.16783 z M 0.41214286,-54.048917 c -21.84009986,0 -40.10799986,14.10843 -51.61079986,33.45291 -11.4996,19.3413803 -18.1577,45.07179 -18.1577,72.63729 l 0,452.070437 c 0,27.5624 6.6581,52.33854 18.1577,71.68301 11.5028,19.34142 29.7707,34.40712 51.61079986,34.40712 l 844.88699714,0 c 21.8401,0 40.111,-15.0657 51.6107,-34.40712 11.5027,-19.34447 18.1608,-44.12061 18.1608,-71.68301 l 0,-452.070437 c 0,-27.5655 -6.6581,-53.2959097 -18.1608,-72.63729 -11.4997,-19.34448 -29.7706,-33.45291 -51.6107,-33.45291 l -844.88699714,0 z m 0,30.58407 844.88699714,0 c 8.0374,0 16.8579,5.67036 24.8496,19.1151703 7.9947,13.44478 14.3378,33.7067497 14.3378,56.3909597 l 0,452.070437 c 0,22.68111 -6.3431,42.94617 -14.3378,56.39098 -7.9917,13.44169 -16.8122,19.11504 -24.8496,19.11504 l -844.88699714,0 c -8.03439996,0 -16.85489986,-5.67335 -24.84959986,-19.11504 -7.9916,-13.44481 -14.3348,-33.70987 -14.3348,-56.39098 l 0,-452.070437 c 0,-22.68421 6.3432,-42.9461797 14.3348,-56.3909597 7.9947,-13.4448103 16.8151999,-19.1151703 24.84959986,-19.1151703 z"
       id="path3777"
       style="fill:#000000;fill-opacity:1;fill-rule:evenodd;stroke:none" />
  </g>
</svg>
