<?xml version="1.0" encoding="UTF-8" standalone="no"?>
<!-- Created with Inkscape (http://www.inkscape.org/) -->

<svg
   xmlns:dc="http://purl.org/dc/elements/1.1/"
   xmlns:cc="http://creativecommons.org/ns#"
   xmlns:rdf="http://www.w3.org/1999/02/22-rdf-syntax-ns#"
   xmlns:svg="http://www.w3.org/2000/svg"
   xmlns="http://www.w3.org/2000/svg"
   xmlns:sodipodi="http://sodipodi.sourceforge.net/DTD/sodipodi-0.dtd"
   xmlns:inkscape="http://www.inkscape.org/namespaces/inkscape"
   width="996.04132"
   height="704.64844"
   id="svg3532"
   version="1.1"
   inkscape:version="0.48.2 r9819"
   sodipodi:docname="New document 24">
  <defs
     id="defs3534" />
  <sodipodi:namedview
     id="base"
     pagecolor="#ffffff"
     bordercolor="#666666"
     borderopacity="1.0"
     inkscape:pageopacity="0.0"
     inkscape:pageshadow="2"
     inkscape:zoom="0.35"
     inkscape:cx="498.02066"
     inkscape:cy="352.32421"
     inkscape:document-units="px"
     inkscape:current-layer="layer1"
     showgrid="false"
     fit-margin-top="0"
     fit-margin-left="0"
     fit-margin-right="0"
     fit-margin-bottom="0"
     inkscape:window-width="469"
     inkscape:window-height="455"
     inkscape:window-x="200"
     inkscape:window-y="200"
     inkscape:window-maximized="0" />
  <metadata
     id="metadata3537">
    <rdf:RDF>
      <cc:Work
         rdf:about="">
        <dc:format>image/svg+xml</dc:format>
        <dc:type
           rdf:resource="http://purl.org/dc/dcmitype/StillImage" />
        <dc:title></dc:title>
      </cc:Work>
    </rdf:RDF>
  </metadata>
  <g
     inkscape:label="Layer 1"
     inkscape:groupmode="layer"
     id="layer1"
     transform="translate(123.02066,-180.03798)">
    <g
       transform="matrix(10.163687,0,0,10.163687,-133.18435,176.63314)"
       id="g3">
      <path
         inkscape:connector-curvature="0"
         d="M 42.997,62.661 50,69.665 57.003,62.661 C 55.212,60.867 52.735,59.76 50,59.76 c -2.736,0 -5.211,1.107 -7.003,2.901 z"
         id="path5" />
      <path
         inkscape:connector-curvature="0"
         d="m 29,48.665 6.995,6.991 c 3.584,-3.582 8.536,-5.8 14.004,-5.8 5.467,0 10.421,2.218 14.006,5.8 L 71,48.665 c -5.379,-5.383 -12.809,-8.714 -21,-8.714 -8.192,0 -15.621,3.331 -21,8.714 z"
         id="path7" />
      <path
         inkscape:connector-curvature="0"
         d="m 14.999,34.664 6.989,6.985 C 29.157,34.481 39.061,30.048 50,30.048 c 10.941,0 20.843,4.433 28.012,11.601 l 6.989,-6.985 C 76.034,25.695 63.652,20.143 50,20.143 c -13.653,0 -26.033,5.552 -35.001,14.521 z"
         id="path9" />
      <path
         inkscape:connector-curvature="0"
         d="m 50,0.335 c -19.113,0 -36.446,7.774 -49,20.328 l 6.98,6.983 C 18.736,16.89 33.592,10.24 50,10.24 c 16.409,0 31.265,6.65 42.017,17.406 L 99,20.663 C 86.444,8.109 69.113,0.335 50,0.335 z"
         id="path11" />
    </g>
  </g>
</svg>
